<svg width="36" height="36" viewBox="0 0 36 36" fill="none" xmlns="http://www.w3.org/2000/svg">
<circle cx="18" cy="18" r="17" stroke="#24C301" stroke-width="2"/>
<path d="M28 16.6898C28 18.4768 27.313 20.0898 25.877 21.6638C23.777 24.0778 19.089 27.0268 18.013 27.4758C16.939 27.9268 17.102 27.1888 17.139 26.9388L17.276 26.0888C17.31 25.8268 17.344 25.4388 17.244 25.1888C17.132 24.9118 16.688 24.7648 16.363 24.6968C11.558 24.0588 8 20.6998 8 16.6898C8 12.2148 12.487 8.57178 18 8.57178C23.512 8.57178 28 12.2148 28 16.6898ZM24.4 20.3148C25.513 19.0948 26 17.9538 26 16.6898C26 13.4218 22.49 10.5718 18 10.5718C13.51 10.5718 10 13.4218 10 16.6898C10 19.5948 12.728 22.1968 16.626 22.7138L16.773 22.7398C17.851 22.9658 18.657 23.3538 19.102 24.4478L19.138 24.5438C20.944 23.3678 23.312 21.5638 24.399 20.3148H24.4ZM24.138 16.3148C24.2716 16.323 24.3971 16.3819 24.4888 16.4795C24.5805 16.577 24.6316 16.7059 24.6316 16.8398C24.6316 16.9737 24.5805 17.1025 24.4888 17.2001C24.3971 17.2976 24.2716 17.3565 24.138 17.3648H22.675V18.3028H24.137C24.2078 18.2997 24.2785 18.311 24.3448 18.3359C24.4112 18.3609 24.4718 18.399 24.5229 18.448C24.5741 18.497 24.6149 18.5559 24.6427 18.6211C24.6706 18.6863 24.6849 18.7564 24.6849 18.8273C24.6849 18.8982 24.6706 18.9683 24.6427 19.0335C24.6149 19.0986 24.5741 19.1575 24.5229 19.2065C24.4718 19.2555 24.4112 19.2937 24.3448 19.3186C24.2785 19.3436 24.2078 19.3549 24.137 19.3518H22.15C22.0115 19.3507 21.8791 19.2951 21.7813 19.197C21.6836 19.0989 21.6285 18.9662 21.628 18.8278V14.8518C21.628 14.5648 21.863 14.3268 22.153 14.3268H24.141C24.2802 14.3272 24.4136 14.3829 24.5118 14.4816C24.61 14.5803 24.6649 14.714 24.6645 14.8533C24.6641 14.9925 24.6084 15.1259 24.5097 15.2241C24.4109 15.3222 24.2772 15.3772 24.138 15.3768H22.676V16.3148H24.138ZM20.925 18.8278C20.9247 18.8966 20.9109 18.9647 20.8843 19.0282C20.8578 19.0916 20.819 19.1492 20.7701 19.1977C20.7213 19.2462 20.6634 19.2846 20.5997 19.3107C20.536 19.3367 20.4678 19.35 20.399 19.3498C20.3167 19.3516 20.2351 19.3337 20.1612 19.2975C20.0872 19.2613 20.0231 19.2079 19.974 19.1418L17.938 16.3778V18.8278C17.928 18.9598 17.8685 19.0831 17.7714 19.1731C17.6744 19.2631 17.5469 19.3131 17.4145 19.3131C17.2821 19.3131 17.1546 19.2631 17.0576 19.1731C16.9605 19.0831 16.901 18.9598 16.891 18.8278V14.8518C16.8907 14.7135 16.9453 14.5808 17.0428 14.4827C17.1403 14.3847 17.2727 14.3293 17.411 14.3288C17.573 14.3288 17.723 14.4148 17.823 14.5398L19.875 17.3148V14.8518C19.875 14.5648 20.11 14.3268 20.4 14.3268C20.687 14.3268 20.925 14.5648 20.925 14.8518V18.8278ZM16.141 18.8278C16.1402 18.9669 16.0845 19.1 15.9859 19.1981C15.8874 19.2963 15.7541 19.3515 15.615 19.3518C15.4764 19.351 15.3436 19.2955 15.2457 19.1974C15.1478 19.0992 15.0925 18.9664 15.092 18.8278V14.8518C15.092 14.5648 15.328 14.3268 15.617 14.3268C15.906 14.3268 16.141 14.5648 16.141 14.8518V18.8278ZM14.086 19.3518H12.097C11.9582 19.351 11.8252 19.2956 11.727 19.1975C11.6287 19.0994 11.573 18.9666 11.572 18.8278V14.8518C11.5835 14.7204 11.6438 14.5982 11.7409 14.5091C11.8381 14.4201 11.9652 14.3706 12.097 14.3706C12.2288 14.3706 12.3559 14.4201 12.4531 14.5091C12.5502 14.5982 12.6105 14.7204 12.622 14.8518V18.3018H14.086C14.2252 18.3018 14.3588 18.3571 14.4572 18.4555C14.5557 18.554 14.611 18.6875 14.611 18.8268C14.611 18.966 14.5557 19.0996 14.4572 19.198C14.3588 19.2965 14.2252 19.3518 14.086 19.3518Z" fill="#24C301"/>
</svg>
