<svg width="50" height="55" viewBox="0 0 50 55" fill="none" xmlns="http://www.w3.org/2000/svg">
<path d="M7.65282 48.5091C8.80624 49.9737 12.0285 52.252 15.2233 53.419L15.3835 53.4516C23.2469 55.1068 31.861 56.2413 38.96 52.438C47.0294 48.0952 50.9978 37.9126 49.7848 28.7251C49.3729 25.6424 48.4758 22.6527 47.8258 19.6165C47.0112 16.0623 46.7105 12.4066 46.9333 8.76437C47.1301 6.21639 47.4505 3.12442 45.2581 1.71094C44.7852 1.42708 44.2587 1.24765 43.713 1.18436C43.1672 1.12107 42.6145 1.17534 42.0908 1.34363C40.1958 1.89693 38.8868 3.3848 37.683 4.89591C35.3935 7.80032 33.3999 10.9331 31.7328 14.2462C31.5502 14.6008 31.2731 14.8961 30.9332 15.0983C30.5933 15.3006 30.2042 15.4016 29.8105 15.39C26.547 15.3017 23.7779 15.2598 20.3588 15.1622C19.0085 15.1204 17.6125 15.0739 16.363 14.5624C15.3318 14.1022 14.399 13.4421 13.6168 12.6189C11.3914 10.4185 9.80751 7.63648 9.03967 4.57974C8.88904 3.64538 8.5891 2.7423 8.15172 1.90622C7.54553 1.00576 6.6267 0.371321 5.5794 0.130083C5.12372 0.00443973 4.64671 -0.0198407 4.18095 0.0589085C3.71519 0.137658 3.27164 0.31758 2.88059 0.586386C2.48953 0.855192 2.16018 1.20655 1.91503 1.61648C1.66987 2.02641 1.51467 2.48525 1.46003 2.96168C0.00910019 15.5714 -1.64323 29.2458 3.52429 40.8047C5.37801 44.9754 5.36886 45.6077 7.65282 48.5091Z" fill="#231815"/>
<path d="M12.1066 33.4722C14.5561 33.4722 16.5418 30.818 16.5418 27.5439C16.5418 24.2699 14.5561 21.6157 12.1066 21.6157C9.65709 21.6157 7.67139 24.2699 7.67139 27.5439C7.67139 30.818 9.65709 33.4722 12.1066 33.4722Z" fill="white"/>
<path d="M11.3143 20.9648C10.8013 22.0547 10.4437 23.2132 10.2525 24.4055C9.98414 25.4524 9.96687 26.5494 10.2021 27.6045C10.463 28.5344 11.0077 29.3992 11.3693 30.3105C11.546 30.7242 11.6164 31.1767 11.574 31.6256C11.5315 32.0745 11.3776 32.5051 11.1267 32.8771C10.3303 34.1418 12.3121 35.3088 13.104 34.0488C13.7533 33.0019 14.0069 31.7514 13.818 30.5291C13.6486 29.5247 13.0902 28.6041 12.6737 27.6881C12.3442 26.9851 12.2401 26.1948 12.3762 25.4285C12.5252 24.2924 12.8335 23.1839 13.2916 22.1365C13.9645 20.8068 11.9917 19.6304 11.3143 20.9648V20.9648Z" fill="#231815"/>
<path d="M38.4703 33.4722C40.9198 33.4722 42.9055 30.818 42.9055 27.5439C42.9055 24.2699 40.9198 21.6157 38.4703 21.6157C36.0209 21.6157 34.0352 24.2699 34.0352 27.5439C34.0352 30.818 36.0209 33.4722 38.4703 33.4722Z" fill="white"/>
<path d="M39.34 34.1235C39.8399 33.0274 40.1821 31.8639 40.3561 30.6689C40.6078 29.6179 40.6078 28.5209 40.3561 27.4699C40.0093 26.5484 39.6073 25.6494 39.1523 24.7778C38.9638 24.3685 38.8829 23.9165 38.9174 23.4659C38.9519 23.0153 39.1006 22.5815 39.3491 22.2066C40.1272 20.9326 38.1499 19.7656 37.3718 21.0349C36.7314 22.0886 36.4891 23.3425 36.6898 24.5639C36.8683 25.5636 37.4405 26.4842 37.8707 27.3909C38.2133 28.088 38.3318 28.8768 38.2094 29.6459C38.0768 30.784 37.7855 31.8971 37.3444 32.9518C36.6898 34.2862 38.6626 35.4626 39.3217 34.1235H39.34Z" fill="#231815"/>
<path d="M28.3777 33.5004C28.039 32.7936 27.627 30.5107 26.8077 29.0182C26.5998 28.6177 26.299 28.2747 25.9314 28.0187C25.5638 27.7627 25.1404 27.6015 24.6977 27.5489C23.0042 27.3955 22.2901 29.0693 21.6677 30.4316C20.5142 32.9424 18.6422 35.2579 16.0836 36.2157C13.4015 37.2154 10.3714 36.597 7.61146 37.3642C7.28877 37.4342 6.99208 37.5954 6.75554 37.8291C6.58605 38.0449 6.47836 38.3039 6.44431 38.5777C6.15137 40.1911 6.79674 42.3578 7.42838 43.869C8.31642 45.7772 9.63304 47.4469 11.2723 48.7439C12.9115 50.0408 14.8276 50.9288 16.8663 51.3362C19.5447 51.9231 22.2641 52.2962 24.9998 52.4521C26.829 52.6814 28.6822 52.6187 30.4923 52.2661C32.0388 51.9305 33.5605 51.4861 35.0465 50.9363C36.4196 50.4714 37.985 50.211 39.1018 49.309C40.6122 48.0861 41.0607 47.8304 42.6581 46.4681C43.4931 45.6115 44.2357 44.667 44.8735 43.6504C45.7889 42.3067 46.1825 41.6697 46.4709 40.0702C46.5271 39.5259 46.4728 38.9756 46.3114 38.4534C46.1501 37.9311 45.885 37.4481 45.5325 37.0341C44.8735 36.3459 42.8595 36.2669 41.9624 36.2762C38.8546 36.3041 37.2069 37.2061 34.0807 36.7783C33.1578 36.6603 32.2487 36.4501 31.3665 36.1506C30.72 35.9328 30.1226 35.5862 29.6095 35.1311C29.0963 34.6761 28.6775 34.1217 28.3777 33.5004V33.5004Z" fill="white"/>
<path d="M10.8338 40.1631C10.4172 42.3391 11.3281 44.4081 12.6646 46.082C13.2848 46.86 14.0814 47.4737 14.9861 47.8705C15.8909 48.2673 16.8769 48.4353 17.8596 48.3603C19.8054 48.1835 21.6167 47.2768 22.9401 45.817C24.3499 44.3198 25.4117 42.3623 24.9998 40.2375C24.7572 38.9681 22.6152 39.2331 22.7525 40.5443C22.963 42.5483 23.4253 44.6592 24.9449 46.0866C26.4645 47.5141 28.6798 47.6861 30.6662 47.5141C31.5915 47.465 32.4947 47.2096 33.3119 46.766C34.129 46.3225 34.84 45.7016 35.3944 44.9475C36.3896 43.5125 36.9453 41.8108 36.9918 40.0561C37.0741 38.5636 34.781 38.5683 34.7032 40.0561C34.5751 42.5018 33.2523 44.9614 30.6479 45.1986C29.3572 45.3195 27.5721 45.4078 26.5286 44.45C25.485 43.4922 25.1554 41.9485 25.0044 40.5536L22.757 40.8605C23.0042 42.1438 21.9881 43.4596 21.1596 44.3059C20.2832 45.2644 19.1013 45.877 17.823 46.0355C17.1747 46.1056 16.5194 46.01 15.9167 45.7575C15.314 45.5049 14.783 45.1034 14.3718 44.5895C13.5663 43.5945 12.7653 42.1205 12.9987 40.7815C13.0726 40.4845 13.0304 40.17 12.8811 39.904C12.7318 39.6379 12.4869 39.4408 12.1977 39.354C11.9059 39.2752 11.5952 39.3157 11.3325 39.467C11.0697 39.6183 10.8759 39.8682 10.7926 40.1631H10.8338Z" fill="#231815"/>
<path d="M17.9144 39.9493C19.3883 39.9493 19.3883 37.6245 17.9144 37.6245C16.4406 37.6245 16.4406 39.9493 17.9144 39.9493Z" fill="#231815"/>
<path d="M15.402 43.5621C16.8758 43.5621 16.8804 41.2373 15.402 41.2373C13.9236 41.2373 13.9282 43.5621 15.402 43.5621Z" fill="#231815"/>
<path d="M18.7523 43.3482C20.2262 43.3482 20.2262 41.0234 18.7523 41.0234C17.2785 41.0234 17.2785 43.3482 18.7523 43.3482Z" fill="#231815"/>
<path d="M29.2155 39.0982C30.6847 39.0982 30.6893 36.7734 29.2155 36.7734C27.7417 36.7734 27.7371 39.0982 29.2155 39.0982Z" fill="#231815"/>
<path d="M28.1674 42.4972C29.6412 42.4972 29.6412 40.1724 28.1674 40.1724C26.6936 40.1724 26.6936 42.4972 28.1674 42.4972Z" fill="#231815"/>
<path d="M31.9345 42.4972C33.4083 42.4972 33.4083 40.1724 31.9345 40.1724C30.4606 40.1724 30.4606 42.4972 31.9345 42.4972Z" fill="#231815"/>
</svg>
