<svg height="24" viewBox="0 0 24 24" width="24" xmlns="http://www.w3.org/2000/svg"><path d="m13 9c0-.55228475-.4477153-1-1-1s-1 .44771525-1 1v3c0 .2652165.1053568.5195704.2928932.7071068l2 2c.3905243.3905243 1.0236893.3905243 1.4142136 0s.3905243-1.0236893 0-1.4142136l-1.7071068-1.7071068zm-1-5c4.9705627 0 9 4.02943725 9 9 0 4.9705627-4.0294373 9-9 9-4.97056275 0-9-4.0294373-9-9 0-4.97056275 4.02943725-9 9-9zm0 2c-3.86599325 0-7 3.13400675-7 7 0 3.8659932 3.13400675 7 7 7 3.8659932 0 7-3.1340068 7-7 0-3.86599325-3.1340068-7-7-7zm5.2928932-3.70710678c.3905243-.39052429 1.0236893-.39052429 1.4142136 0l3 3c.3905243.39052429.3905243 1.02368927 0 1.41421356s-1.0236893.39052429-1.4142136 0l-3-3c-.3905243-.39052429-.3905243-1.02368927 0-1.41421356zm-10.58578642 0c.39052429.39052429.39052429 1.02368927 0 1.41421356l-3 3c-.39052429.39052429-1.02368927.39052429-1.41421356 0s-.39052429-1.02368927 0-1.41421356l3-3c.39052429-.39052429 1.02368927-.39052429 1.41421356 0z" fill-rule="evenodd"/></svg>