<svg width="10" height="10" viewBox="0 0 10 10" fill="none" xmlns="http://www.w3.org/2000/svg">
<path d="M4.986 10C4.698 10 4.482 9.844 4.338 9.532L0.342 1.054C0.27 0.897999 0.264 0.741999 0.324 0.586C0.384 0.43 0.504 0.31 0.684 0.225999C0.852 0.142 1.014 0.13 1.17 0.19C1.326 0.25 1.446 0.358 1.53 0.514L5.364 8.812H4.626L8.406 0.514C8.478 0.346 8.598 0.238 8.766 0.19C8.946 0.13 9.12 0.136 9.288 0.207999C9.456 0.292 9.57 0.418 9.63 0.586C9.69 0.741999 9.684 0.891999 9.612 1.036L5.67 9.532C5.526 9.844 5.298 10 4.986 10Z" fill="#A37025"/>
</svg>
