<svg width="36" height="36" viewBox="0 0 36 36" fill="none" xmlns="http://www.w3.org/2000/svg">
<circle cx="18" cy="18" r="17" stroke="#1196F5" stroke-width="2"/>
<path d="M20.1959 15.8182V17.0966H15.5724V15.8182H20.1959ZM16.8401 24V14.87C16.8401 14.3587 16.952 13.9343 17.1757 13.5969C17.3994 13.256 17.6959 13.0021 18.0653 12.8352C18.4346 12.6648 18.8358 12.5795 19.2691 12.5795C19.5887 12.5795 19.8621 12.6062 20.0894 12.6594C20.3167 12.7092 20.4854 12.7553 20.5954 12.7979L20.2226 14.087C20.148 14.0657 20.0521 14.0408 19.9349 14.0124C19.8177 13.9805 19.6757 13.9645 19.5088 13.9645C19.1217 13.9645 18.8447 14.0604 18.6778 14.2521C18.5145 14.4439 18.4328 14.7209 18.4328 15.0831V24H16.8401Z" fill="#1196F5"/>
</svg>
