<svg width="36" height="36" viewBox="0 0 36 36" fill="none" xmlns="http://www.w3.org/2000/svg">
<circle cx="18" cy="18" r="17" stroke="#AF3694" stroke-width="2"/>
<path fill-rule="evenodd" clip-rule="evenodd" d="M16.8251 8H19.1739C20.8492 8.00379 21.2338 8.01855 22.1227 8.0591C23.1871 8.10765 23.9141 8.27672 24.5502 8.52396C25.2079 8.77949 25.7656 9.12144 26.3216 9.6774C26.8775 10.2334 27.2195 10.7911 27.475 11.4487C27.7222 12.0848 27.8913 12.8118 27.9399 13.8763C27.9869 14.9074 27.9992 15.26 28 17.7357V18.2633C27.9992 20.739 27.9869 21.0916 27.9399 22.1227C27.8913 23.1871 27.7222 23.9141 27.475 24.5502C27.2195 25.2079 26.8775 25.7656 26.3216 26.3216C25.7656 26.8775 25.2079 27.2195 24.5502 27.475C23.9141 27.7222 23.1871 27.8913 22.1227 27.9399C21.0916 27.9869 20.739 27.9992 18.2633 28H17.7357C15.26 27.9992 14.9074 27.9869 13.8763 27.9399C12.8118 27.8913 12.0848 27.7222 11.4487 27.475C10.7911 27.2195 10.2334 26.8775 9.6774 26.3216C9.12144 25.7656 8.77949 25.2079 8.52396 24.5502C8.27672 23.9141 8.10765 23.1871 8.0591 22.1227C8.01855 21.2338 8.00379 20.8492 8 19.1739V16.8251C8.00379 15.1498 8.01855 14.7652 8.0591 13.8763C8.10765 12.8118 8.27672 12.0848 8.52396 11.4487C8.77949 10.7911 9.12144 10.2334 9.6774 9.6774C10.2334 9.12144 10.7911 8.77949 11.4487 8.52396C12.0848 8.27672 12.8118 8.10765 13.8763 8.0591C14.7652 8.01855 15.1498 8.00379 16.8251 8H19.1739H16.8251ZM18.733 9.80115H17.2659C15.2586 9.80324 14.9075 9.81583 13.9584 9.85914C12.9834 9.9036 12.4538 10.0665 12.1014 10.2035C11.6346 10.3849 11.3015 10.6016 10.9516 10.9516C10.6016 11.3015 10.3849 11.6346 10.2035 12.1014C10.0665 12.4538 9.9036 12.9834 9.85914 13.9584C9.81583 14.9075 9.80324 15.2586 9.80115 17.2659V18.733C9.80324 20.7404 9.81583 21.0915 9.85914 22.0406C9.9036 23.0156 10.0665 23.5451 10.2035 23.8975C10.3849 24.3643 10.6016 24.6975 10.9516 25.0474C11.3015 25.3974 11.6346 25.6141 12.1014 25.7955C12.4538 25.9324 12.9834 26.0954 13.9584 26.1398C15.0128 26.1879 15.329 26.1981 17.9995 26.1981C20.6699 26.1981 20.9862 26.1879 22.0406 26.1398C23.0156 26.0954 23.5451 25.9324 23.8975 25.7955C24.3643 25.6141 24.6975 25.3974 25.0474 25.0474C25.3974 24.6975 25.6141 24.3643 25.7955 23.8975C25.9324 23.5451 26.0954 23.0156 26.1398 22.0406C26.1879 20.986 26.1981 20.6697 26.1981 17.9995C26.1981 15.3292 26.1879 15.0129 26.1398 13.9584C26.0954 12.9834 25.9324 12.4538 25.7955 12.1014C25.6141 11.6346 25.3974 11.3015 25.0474 10.9516C24.6975 10.6016 24.3643 10.3849 23.8975 10.2035C23.5451 10.0665 23.0156 9.9036 22.0406 9.85914C21.0915 9.81583 20.7404 9.80324 18.733 9.80115ZM17.9995 12.9992C20.7611 12.9992 22.9998 15.2379 22.9998 17.9995C22.9998 20.7611 20.7611 22.9998 17.9995 22.9998C15.2379 22.9998 12.9992 20.7611 12.9992 17.9995C12.9992 15.2379 15.2379 12.9992 17.9995 12.9992ZM17.9995 14.7537C16.2069 14.7537 14.7537 16.2069 14.7537 17.9995C14.7537 19.7921 16.2069 21.2453 17.9995 21.2453C19.7921 21.2453 21.2453 19.7921 21.2453 17.9995C21.2453 16.2069 19.7921 14.7537 17.9995 14.7537ZM23.4164 11.3324C24.1068 11.3324 24.6665 11.8921 24.6665 12.5825C24.6665 13.2729 24.1068 13.8326 23.4164 13.8326C22.7261 13.8326 22.1664 13.2729 22.1664 12.5825C22.1664 11.8921 22.7261 11.3324 23.4164 11.3324Z" fill="#AF3694"/>
</svg>
