<svg width="40" height="40" viewBox="0 0 40 40" fill="none" xmlns="http://www.w3.org/2000/svg">
<path fill-rule="evenodd" clip-rule="evenodd" d="M20 40C8.9543 40 -7.8281e-07 31.0457 -1.74846e-06 20C-2.7141e-06 8.95431 8.9543 2.7141e-06 20 1.74846e-06C31.0457 7.8281e-07 40 8.9543 40 20C40 31.0457 31.0457 40 20 40ZM20 36C28.8366 36 36 28.8366 36 20C36 11.1634 28.8366 4 20 4C11.1634 4 4 11.1634 4 20C4 28.8366 11.1634 36 20 36ZM22.9923 29.7276L10.9923 21.7276C9.74707 21.0012 9.67382 19.2652 10.7725 18.42L22.9923 10.2724C24.3256 9.49468 26 10.4564 26 12L26 28C26 29.5436 24.3256 30.5053 22.9923 29.7276Z" fill="#E4D2A3"/>
</svg>
