<svg width="40" height="40" viewBox="0 0 40 40" fill="none" xmlns="http://www.w3.org/2000/svg">
<path fill-rule="evenodd" clip-rule="evenodd" d="M20 0C31.0457 0 40 8.9543 40 20C40 31.0457 31.0457 40 20 40C8.9543 40 0 31.0457 0 20C0 8.9543 8.9543 0 20 0ZM20 4C11.1634 4 4 11.1634 4 20C4 28.8366 11.1634 36 20 36C28.8366 36 36 28.8366 36 20C36 11.1634 28.8366 4 20 4ZM17.0077 10.2724L29.0077 18.2724C30.2529 18.9988 30.3262 20.7349 29.2275 21.58L17.0077 29.7276C15.6744 30.5053 14 29.5436 14 28V12C14 10.4564 15.6744 9.49468 17.0077 10.2724Z" fill="#E4D2A3"/>
</svg>
