<svg height="24" viewBox="0 0 24 24" width="24" xmlns="http://www.w3.org/2000/svg"><path d="m13.2097046 4.38710056.0831886-.09420734c.360484-.36048396.927715-.3882135 1.3200062-.08318861l.0942074.08318861 7 6.99999998.0413974.0439598.0551612.0678404.0716634.1112445.0534457.1127261.0353804.105343.0289379.1478975.0069072.1180955-.0027879.0752385-.0174522.1254873-.029498.1114167-.0439353.111079-.0523221.0974873-.0736933.1047402-.0732044.0816578-7 7c-.3905243.3905243-1.0236893.3905243-1.4142136 0-.3604839-.360484-.3882135-.927715-.0831886-1.3200062l.0831886-.0942074 5.2911068-5.2928932h-15.584c-.55228475 0-1-.4477153-1-1s.44771525-1 1-1h15.586l-5.2931068-5.29289322c-.3604839-.36048396-.3882135-.92771502-.0831886-1.32000622l.0831886-.09420734z" fill-rule="evenodd"/></svg>