<svg height="24" viewBox="0 0 24 24" width="24" xmlns="http://www.w3.org/2000/svg"><path d="m10.7902954 4.38710056-.0831886-.09420734c-.360484-.36048396-.92771504-.3882135-1.32000624-.08318861l-.09420734.08318861-7 6.99999998-.04139742.0439598-.05516122.0678404-.07166341.1112445-.05344568.1127261-.03538035.105343-.02893798.1478975-.00690716.1180955.00278786.0752385.01745221.1254873.02949802.1114167.04393527.111079.05232209.0974873.07369332.1047402.07320445.0816578 7 7c.39052429.3905243 1.02368928.3905243 1.41421358 0 .3604839-.360484.3882135-.927715.0831886-1.3200062l-.0831886-.0942074-5.2911068-5.2928932h15.584c.5522847 0 1-.4477153 1-1s-.4477153-1-1-1h-15.586l5.2931068-5.29289322c.3604839-.36048396.3882135-.92771502.0831886-1.32000622l-.0831886-.09420734z" fill-rule="evenodd"/></svg>