<svg height="24" viewBox="0 0 24 24" width="24" xmlns="http://www.w3.org/2000/svg"><path d="m17.8531452 16.5218773-.0212665.0335581-.0580423.0781053-.0667296.0735661-5 5c-.6025751.6025751-1.6142876.2205609-1.7011235-.5934759l-.0059833-.1136309-.0000368-6.9210048-3.37526815 2.7018736c-.43126194.3450096-1.06055431.2750882-1.40556386-.1561738-.31847035-.3980879-.28339009-.9649118.0630905-1.3211193l.09308326-.0844445 4.02365825-3.219136-4.02365825-3.21912639c-.43126193-.34500955-.50118331-.97430192-.15617376-1.40556386.31847035-.39808794.87916986-.48828806 1.30274607-.2284501l.10281779.07227634 3.37526815 2.70086406.0000368-6.91999525c0-.85216986.9855136-1.29743382 1.6225268-.78322518l.08458.0761184 5 5c.04739.04739005.0889651.09822901.1247719.1516714l.0277861.04391342.0446521.08370493.0497725.12739855c.1045659.34237228.025638.7203025-.226671.986843l-.1027234.09444429-4.0247318 3.21912639 4.0247318 3.219136c.2659467.2127573.3924785.5306187.3734503.8426302-.0063934.097637-.0254355.1899814-.0577249.2790515l-.0361011.0869566zm-4.8531452-2.4418773v4.504l2.502-2.502zm0-8.665v4.504l2.502-2.002z"/></svg>