<svg height="24" viewBox="0 0 24 24" width="24" xmlns="http://www.w3.org/2000/svg"><path d="m9.5 4.49758215 2.5 1.03349452 2.5-1.03349452c1.6048534-.66344287 3.3951466-.66344287 5 0l1.8713907.7736288c.3796584.15694995.6286093.53697493.6286093.95957558v12.24270797c0 .5707833-.4477153 1.0334945-1 1.0334945-.1272194 0-.2532704-.0250882-.3713907-.0739189l-1.1286093-.4665646c-1.6048534-.6634429-3.3951466-.6634429-5 0l-2.5 1.0334945-2.5-1.0334945c-1.60485336-.6634429-3.39514664-.6634429-5 0l-1.12860932.4665646c-.51278352.2119836-1.09475396-.0457864-1.29986737-.5757453-.04724811-.1220767-.07152331-.2523497-.07152331-.3838303v-12.24270797c0-.42260065.24895094-.80262563.62860932-.95957558l1.87139068-.7736288c1.60485336-.66344287 3.39514664-.66344287 5 0zm-4.23592027 1.84829169-1.26407973.52256779v10.14566597c2.02542236-.7600993 4.25752963-.7253972 6.2640797.1041062l.7359203.3037862v-10.14l-2.26407973-.93612616c-1.11554804-.46116512-2.3562925-.46116512-3.47184054 0zm9.99999997 0-2.2640797.93512616v10.141l.7359203-.3037862c2.0065501-.8295034 4.2386574-.8642055 6.2640797-.1041061v-10.14566607l-1.2640797-.52256779c-1.1155481-.46116512-2.3562925-.46116512-3.4718406 0z" fill-rule="evenodd"/></svg>