<svg height="24" viewBox="0 0 24 24" width="24" xmlns="http://www.w3.org/2000/svg"><path d="m17 2c.5522847 0 1 .44771525 1 1v1h1c1.6568542 0 3 1.34314575 3 3v12c0 1.6568542-1.3431458 3-3 3h-14c-1.65685425 0-3-1.3431458-3-3v-12c0-1.65685425 1.34314575-3 3-3h1v-1c0-.55228475.44771525-1 1-1s1 .44771525 1 1v1h8v-1c0-.55228475.4477153-1 1-1zm-13 10v7c0 .5522847.44771525 1 1 1h14c.5522847 0 1-.4477153 1-1v-7zm0-2h16v-3c0-.55228475-.4477153-1-1-1h-1v1c0 .55228475-.4477153 1-1 1s-1-.44771525-1-1v-1h-8v1c0 .55228475-.44771525 1-1 1s-1-.44771525-1-1v-1h-1c-.55228475 0-1 .44771525-1 1z" fill-rule="evenodd"/></svg>