<svg height="24" viewBox="0 0 24 24" width="24" xmlns="http://www.w3.org/2000/svg"><path d="m13.763932 3c1.1363162 0 2.1751056.64200713 2.6832816 1.65835921l.8944272 1.78885439c.169392.33878402.5156551.5527864.8944272.5527864h.763932c1.6568542 0 3 1.34314575 3 3v8c0 1.6568542-1.3431458 3-3 3h-14c-1.65685425 0-3-1.3431458-3-3v-8c0-1.65685425 1.34314575-3 3-3h.76393202c.37877206 0 .72503518-.21400238.89442719-.5527864l.89442719-1.78885439c.50817605-1.01635208 1.5469654-1.65835921 2.6832816-1.65835921zm0 2h-3.527864c-.37877208 0-.7250352.21400238-.89442721.5527864l-.89442719 1.78885439c-.50817605 1.01635208-1.5469654 1.65835921-2.68328158 1.65835921h-.76393202c-.55228475 0-1 .44771525-1 1v8c0 .5522847.44771525 1 1 1h14c.5522847 0 1-.4477153 1-1v-8c0-.55228475-.4477153-1-1-1h-.763932c-1.1363162 0-2.1751056-.64200713-2.6832816-1.65835921l-.8944272-1.78885439c-.169392-.33878402-.5156551-.5527864-.8944272-.5527864zm-1.763932 4c2.209139 0 4 1.790861 4 4s-1.790861 4-4 4-4-1.790861-4-4 1.790861-4 4-4zm0 2c-1.1045695 0-2 .8954305-2 2s.8954305 2 2 2 2-.8954305 2-2-.8954305-2-2-2z" fill-rule="evenodd"/></svg>