<svg height="24" viewBox="0 0 24 24" width="24" xmlns="http://www.w3.org/2000/svg"><path d="m19 2c1.6568542 0 3 1.34314575 3 3v14c0 1.6568542-1.3431458 3-3 3h-14c-1.65685425 0-3-1.3431458-3-3v-14c0-1.65685425 1.34314575-3 3-3zm0 2h-14c-.55228475 0-1 .44771525-1 1v14c0 .5522847.44771525 1 1 1h14c.5522847 0 1-.4477153 1-1v-14c0-.55228475-.4477153-1-1-1zm-11 10c.55228475 0 1 .4477153 1 1v2c0 .5522847-.44771525 1-1 1s-1-.4477153-1-1v-2c0-.5522847.44771525-1 1-1zm4-8c.5522847 0 1 .44771525 1 1v10c0 .5522847-.4477153 1-1 1s-1-.4477153-1-1v-10c0-.55228475.4477153-1 1-1zm4 4c.5522847 0 1 .4477153 1 1v6c0 .5522847-.4477153 1-1 1s-1-.4477153-1-1v-6c0-.5522847.4477153-1 1-1z" fill-rule="evenodd"/></svg>