<svg height="24" viewBox="0 0 24 24" width="24" xmlns="http://www.w3.org/2000/svg"><path d="m8.35078106 18-4.72608601 3.7808688c-.65476335.5238107-1.62469505.0576374-1.62469505-.7808688v-16c0-1.65685425 1.34314575-3 3-3h14c1.6568542 0 3 1.34314575 3 3v10c0 1.6568542-1.3431458 3-3 3zm-4.35078106.9193752 3.37530495-2.700244c.17731305-.1418504.39762355-.2191312.62469505-.2191312h11c.5522847 0 1-.4477153 1-1v-10c0-.55228475-.4477153-1-1-1h-14c-.55228475 0-1 .44771525-1 1z" fill-rule="evenodd"/></svg>