<svg height="24" viewBox="0 0 24 24" width="24" xmlns="http://www.w3.org/2000/svg"><path d="m19 2c1.5949286 0 2.9034643 1.25157398 2.9948968 2.82401157l.0051032.17598843v10c0 1.5949286-1.251574 2.9034643-2.8240116 2.9948968l-.1759884.0051032h-3.5l-2.7 3.6c-.189.252-.485.4-.8.4-.275625 0-.5367031-.1133125-.7242813-.3104609l-.0757187-.0895391-2.7-3.6h-3.5c-1.59492857 0-2.90346429-1.251574-2.99489677-2.8240116l-.00510323-.1759884v-10c0-1.59492857 1.25157398-2.90346429 2.82401157-2.99489677l.17598843-.00510323zm0 2h-14c-.51164286 0-.93533673.38714796-.99325401.88361625l-.00674599.11638375v10c0 .5116429.38714796.9353367.88361625.993254l.11638375.006746h4c.275625 0 .53670313.1133125.72428125.3104609l.07571875.0895391 2.2 2.933 2.2-2.933c.165375-.2205.4126719-.361375.6829375-.3931484l.1170625-.0068516h4c.5116429 0 .9353367-.387148.993254-.8836163l.006746-.1163837v-10c0-.51164286-.387148-.93533673-.8836163-.99325401zm-2 7c.552 0 1 .448 1 1 0 .5125714-.3862857.9354694-.8834315.9932682l-.1165685.0067318h-10c-.552 0-1-.448-1-1 0-.5125714.38628571-.9354694.88343149-.9932682l.11656851-.0067318zm0-4c.552 0 1 .448 1 1 0 .51257143-.3862857.93546939-.8834315.99326822l-.1165685.00673178h-10c-.552 0-1-.448-1-1 0-.51257143.38628571-.93546939.88343149-.99326822l.11656851-.00673178z" fill-rule="evenodd"/></svg>