<svg height="24" viewBox="0 0 24 24" width="24" xmlns="http://www.w3.org/2000/svg"><path d="m11 2c1.6568542 0 3 1.34314575 3 3l.0000889 1.17067428c.3127538-.11053146.6493089-.17067428.9999111-.17067428h4c1.6568542 0 3 1.34314575 3 3v10c0 1.6568542-1.3431458 3-3 3h-14c-1.65685425 0-3-1.3431458-3-3v-14c0-1.65685425 1.34314575-3 3-3zm0 2h-6c-.55228475 0-1 .44771525-1 1v14c0 .5522847.44771525 1 1 1h7v-15c0-.55228475-.4477153-1-1-1zm8 4h-4c-.5522847 0-1 .44771525-1 1v11h5c.5522847 0 1-.4477153 1-1v-10c0-.55228475-.4477153-1-1-1zm-10 6c.55228475 0 1 .4477153 1 1s-.44771525 1-1 1h-2c-.55228475 0-1-.4477153-1-1s.44771525-1 1-1zm9 0c.5522847 0 1 .4477153 1 1s-.4477153 1-1 1h-2c-.5522847 0-1-.4477153-1-1s.4477153-1 1-1zm-9-4c.55228475 0 1 .4477153 1 1s-.44771525 1-1 1h-2c-.55228475 0-1-.4477153-1-1s.44771525-1 1-1zm9 0c.5522847 0 1 .4477153 1 1s-.4477153 1-1 1h-2c-.5522847 0-1-.4477153-1-1s.4477153-1 1-1zm-9-4c.55228475 0 1 .44771525 1 1s-.44771525 1-1 1h-2c-.55228475 0-1-.44771525-1-1s.44771525-1 1-1z" fill-rule="evenodd"/></svg>