<svg height="24" viewBox="0 0 24 24" width="24" xmlns="http://www.w3.org/2000/svg"><path d="m3 18 .11662113-.0067277c.45908186-.0533217.8233295-.4175693.87665114-.8766512l.00672773-.1166211v-13h13l.1166211-.00672773c.4973387-.05776511.8833789-.48043643.8833789-.99327227s-.3860402-.93550716-.8833789-.99327227l-.1166211-.00672773h-14l-.11662113.00672773c-.45908186.05332164-.8233295.41756928-.87665114.87665114l-.00672773.11662113v14l.00672773.1166211c.05332164.4590819.41756928.8233295.87665114.8766512zm18 4 .1166211-.0067277c.4590819-.0533217.8233295-.4175693.8766512-.8766512l.0067277-.1166211v-14l-.0067277-.11662113c-.0488782-.42082504-.3590206-.76196299-.7639815-.85696816l-.1126697-.01968298-.1166211-.00672773h-14l-.11662113.00672773c-.45908186.05332164-.8233295.41756928-.87665114.87665114l-.00672773.11662113v14l.00672773.1166211c.04887817.4208251.35902055.761963.76398144.8569682l.1126697.019683.11662113.0067277zm-13-2v-12h12v12z"/></svg>