<svg height="24" viewBox="0 0 24 24" width="24" xmlns="http://www.w3.org/2000/svg"><path d="m7 8.5c0-2.20415771 1.73751171-3.99858288 4.0052145-4.41079497l-.004047-.04374206-.0011675-1.04546297c0-.55228475.4477153-1 1-1s1 .44771525 1 1v1l-.0042154.08938673c2.267214.41255747 4.0042154 2.20677928 4.0042154 4.41061327 0 .55228475-.4477153 1-1 1-.5128358 0-.9355072-.38604019-.9932723-.88337887l-.0067277-.11662113c0-1.34880566-1.3156507-2.5-3-2.5s-3 1.15119434-3 2.5c0 1.29884989 1.2199998 2.4144553 2.8144155 2.495311l.1855845.004689c2.7339287 0 5 1.9828124 5 4.5 0 2.2022154-1.7344509 3.9954201-3.9992209 4.409702l-.0007791 1.090298c0 .5522847-.4477153 1-1 1s-1-.4477153-1-1l.0002197-1.0901154c-2.26525884-.4139373-4.0002197-2.2073455-4.0002197-4.4098846 0-.5522847.44771525-1 1-1s1 .4477153 1 1c0 1.3488057 1.3156507 2.5 3 2.5s3-1.1511943 3-2.5c0-1.2988499-1.2199998-2.4144553-2.8144155-2.495311l-.1855845-.004689c-2.73392868 0-5-1.9828124-5-4.5z" fill-rule="evenodd"/></svg>