<svg height="24" viewBox="0 0 24 24" width="24" xmlns="http://www.w3.org/2000/svg"><path d="m21 16c.5128358 0 .9355072.3860402.9932723.8833789l.0067277.1166211v2c0 1.5976809-1.24892 2.9036609-2.8237272 2.9949073l-.1762728.0050927h-14c-1.59768088 0-2.90366088-1.24892-2.99490731-2.8237272l-.00509269-.1762728v-2c0-.5522847.44771525-1 1-1 .51283584 0 .93550716.3860402.99327227.8833789l.00672773.1166211v2c0 .5128358.38604019.9355072.88337887.9932723l.11662113.0067277h14c.5128358 0 .9355072-.3860402.9932723-.8833789l.0067277-.1166211v-2c0-.5522847.4477153-1 1-1zm-9-14c.5522847 0 1 .44771525 1 1v9.585l1.2928932-1.2921068c.360484-.3604839.927715-.3882135 1.3200062-.0831886l.0942074.0831886c.3604839.360484.3882135.927715.0831886 1.3200062l-.0831886.0942074-3 3-.0439598.0413974-.0678404.0551612-.1112445.0716634-.1127261.0534457-.105343.0353804-.1485188.0290109-.1174742.0068342-.0752385-.0027879-.1254873-.0174522-.1114167-.029498-.111079-.0439353-.0974873-.0523221-.0960413-.0667905c-.0317158-.0248828-.0618904-.0516409-.0903567-.0801072l-2.99999998-3c-.39052429-.3905243-.39052429-1.0236893 0-1.4142136.36048396-.3604839.92771502-.3882135 1.32000622-.0831886l.09420734.0831886 1.29289322 1.2921068v-9.585c0-.55228475.4477153-1 1-1z" fill-rule="evenodd"/></svg>