<svg height="24" viewBox="0 0 24 24" width="24" xmlns="http://www.w3.org/2000/svg"><path d="m21 20c.5522847 0 1 .4477153 1 1s-.4477153 1-1 1h-18c-.55228475 0-1-.4477153-1-1s.44771525-1 1-1zm-14.70710678-6.7071068 10.99999998-10.99999998c.360484-.36048396.927715-.3882135 1.3200062-.08318861l.0942074.08318861 3 3c.3604839.36048396.3882135.92771502.0831886 1.32000622l-.0831886.09420734-11 11.00000002c-.1562803.1562803-.3589617.2554915-.5756628.2842208l-.131444.0086724h-3c-.51283584 0-.93550716-.3860402-.99327227-.8833789l-.00672773-.1166211v-3c0-.2210137.07316447-.434484.20608063-.6080295l.08681259-.0990773 10.99999998-10.99999998zm11.70710678-8.87867964-10 10.00000004v1.5857864h1.58578644l9.99999996-10z" fill-rule="evenodd"/></svg>