<svg height="24" viewBox="0 0 24 24" width="24" xmlns="http://www.w3.org/2000/svg"><path d="m8 12c0 1.3062521-.8348501 2.4175144-2.00008893 2.8293257l.00008893 6.1706743c0 .5522847-.44771525 1-1 1s-1-.4477153-1-1l-.00090072-6.1710242c-1.16472185-.4120906-1.99909928-1.5230936-1.99909928-2.8289758s.83437743-2.41688515 1.99909928-2.82897577l.00090072-6.17102423c0-.55228475.44771525-1 1-1s1 .44771525 1 1l-.00008893 6.17067428c1.16523883.4118113 2.00008893 1.52307362 2.00008893 2.82932572zm-2 0c0-.5522847-.44771525-1-1-1s-1 .4477153-1 1 .44771525 1 1 1 1-.4477153 1-1zm9 7c0 1.6568542-1.3431458 3-3 3s-3-1.3431458-3-3c0-1.3058822.83437743-2.4168852 1.9990993-2.8289758l.0009007-13.1710242c0-.55228475.4477153-1 1-1s1 .44771525 1 1l-.0000889 13.1706743c1.1652388.4118113 2.0000889 1.5230736 2.0000889 2.8293257zm-2 0c0-.5522847-.4477153-1-1-1s-1 .4477153-1 1 .4477153 1 1 1 1-.4477153 1-1zm9-14c0 1.31179956-.8419562 2.42694971-2.0149527 2.83453458.0102579.0534518.0149527.10891034.0149527.16546542v13c0 .5522847-.4477153 1-1 1s-1-.4477153-1-1v-13c0-.05655508.0046948-.11201362.013716-.16600715-1.1717598-.40704314-2.013716-1.52219329-2.013716-2.83399285 0-1.65685425 1.3431458-3 3-3s3 1.34314575 3 3zm-2 0c0-.55228475-.4477153-1-1-1s-1 .44771525-1 1 .4477153 1 1 1 1-.44771525 1-1z" fill-rule="evenodd"/></svg>