<svg height="24" viewBox="0 0 24 24" width="24" xmlns="http://www.w3.org/2000/svg"><path d="m14 2c.2652165 0 .5195704.10535684.7071068.29289322l5 5c.1875364.18753638.2928932.44189029.2928932.70710678v11c0 1.6568542-1.3431458 3-3 3h-10c-1.65685425 0-3-1.3431458-3-3v-14c0-1.65685425 1.34314575-3 3-3zm-2.001 2h-4.999c-.55228475 0-1 .44771525-1 1v14c0 .5522847.44771525 1 1 1h10c.5522847 0 1-.4477153 1-1v-9h-5c-.5128358 0-.9355072-.38604019-.9932723-.88337887l-.0067277-.11662113zm5.587 4-3.587-3.586.001 3.586z" fill-rule="evenodd"/></svg>