<svg height="24" viewBox="0 0 24 24" width="24" xmlns="http://www.w3.org/2000/svg"><path d="m12.4775757 6h6.5224243c1.6568542 0 3 1.34314575 3 3v8c0 1.6568542-1.3431458 3-3 3h-14c-1.65685425 0-3-1.3431458-3-3v-10c0-1.65685425 1.34314575-3 3-3h5.383667c.3020451 0 .5879073.13652083.7777609.37143972zm-2.57148444 0h-4.90609126c-.55228475 0-1 .44771525-1 1v10c0 .5522847.44771525 1 1 1h14c.5522847 0 1-.4477153 1-1v-8c0-.55228475-.4477153-1-1-1h-7c-.3020451 0-.5879073-.13652083-.7777609-.37143972z" fill-rule="evenodd"/></svg>