<svg height="24" viewBox="0 0 24 24" width="24" xmlns="http://www.w3.org/2000/svg"><path d="m12 2c5.5228475 0 10 4.4771525 10 10s-4.4771525 10-10 10-10-4.4771525-10-10 4.4771525-10 10-10zm2.9724446 11.0007836h-5.94488924c.11093975 2.0034965.55158096 3.8274887 1.22576514 5.175857.6278904 1.2557808 1.2988436 1.8233594 1.7466795 1.8233594s1.1187891-.5675786 1.7466795-1.8233594c.6741842-1.3483683 1.1148254-3.1723605 1.2257651-5.175857zm4.9655392.0002046-2.9627339.0002689c-.1209812 2.4339095-.6783055 4.6110236-1.5132927 6.2139819 2.3981868-1.1536405 4.1332018-3.4677382 4.4760266-6.2142508zm-12.91323272.0002676-2.96273415-.0002685c.34283087 2.7465048 2.07790291 5.060529 4.47662476 6.2134814-.78329501-1.5021373-1.32214203-3.509429-1.48612982-5.7599445zm1.51329172-8.21649482-.02615516.01369123c-2.38510004 1.15737639-4.10865804 3.46473548-4.44997243 6.20137569l2.96278503-.000082c.12087798-2.43431435.6782407-4.6118064 1.51334256-6.21498492zm3.4619572-.78476098-.0812918.00591637c-.4453308.0632389-1.074432.63553165-1.6653877 1.81744301-.67429653 1.34859301-1.11497224 3.17296847-1.22582058 5.17685862h5.94500018c-.1108484-2.00389015-.5515241-3.82826561-1.2258206-5.17685862-.6278904-1.25578082-1.2988436-1.82335938-1.7466795-1.82335938zm3.4613583.78553132.0225921.04170836c.8229685 1.59921671 1.3716411 3.76004005 1.4913839 6.17320202l2.9627738-.0004272c-.342534-2.74694388-2.0777363-5.06139066-4.4767498-6.21448318z" fill-rule="evenodd"/></svg>