<svg height="24" viewBox="0 0 24 24" width="24" xmlns="http://www.w3.org/2000/svg"><path d="m11.9996631 2.00067387c2.4838406-.02939457 4.8831718.90388282 6.6909375 2.60141886l-2.854947 2.85494698c-1.032484-.98471787-2.4103542-1.52116866-3.8359905-1.49912273-2.60876754 0-4.82438277 1.75999948-5.61436166 4.12993612-.41887253 1.2419204-.41887253 2.5867216 0 3.8286419.79732754 2.3662624 3.00926844 4.1262619 5.61803596 4.1262619 1.3484756 0 2.5058865-.3453861 3.4024207-.9553233l-.0037581.0015664c.9843118-.6531459 1.6772723-1.6536062 1.9475215-2.7938322l.0513926-.2463972h-5.401251v-3.8506878h9.4319805c.1175783.6687263.1726931 1.3521499.1726931 2.0318992 0 3.0423373-1.0875989 5.6143616-2.9798739 7.3559895l.0015372-.0029715c-1.5829328 1.4650315-3.7327783 2.3387835-6.276973 2.4119981l-.3493639.0050019c-3.78087576 0-7.23841129-2.1311059-8.93594733-5.5078063l-.14653228-.3046181c-1.26994637-2.7580733-1.22110228-5.9507813.14653228-8.67542108l.14550461-.27878717c1.74436623-3.21833803 5.11459128-5.23269348 8.79044272-5.23269348z"/></svg>