<svg height="24" viewBox="0 0 24 24" width="24" xmlns="http://www.w3.org/2000/svg"><path d="m12 2c5.5228475 0 10 4.4771525 10 10s-4.4771525 10-10 10-10-4.4771525-10-10 4.4771525-10 10-10zm0 2c-4.418278 0-8 3.581722-8 8s3.581722 8 8 8 8-3.581722 8-8-3.581722-8-8-8zm0 12c.5522847 0 1 .4477153 1 1s-.4477153 1-1 1-1-.4477153-1-1 .4477153-1 1-1zm0-10c2.209139 0 4 1.790861 4 4 0 1.7948083-1.1820938 3.3135239-2.8102037 3.8200688l-.1897963.0539137v.1260175c0 .5522847-.4477153 1-1 1-.5128358 0-.9355072-.3860402-.9932723-.8833789l-.0067277-.1166211v-1c0-.5128358.3860402-.9355072.8833789-.9932723l.2658834-.0122134c1.0348599-.0763492 1.8507377-.9401525 1.8507377-1.9945143 0-1.1045695-.8954305-2-2-2s-2 .8954305-2 2c0 .5522847-.44771525 1-1 1s-1-.4477153-1-1c0-2.209139 1.790861-4 4-4z" fill-rule="evenodd"/></svg>