<svg height="24" viewBox="0 0 24 24" width="24" xmlns="http://www.w3.org/2000/svg"><path d="m10.825091 2h2.3488022c1.6752666.00379146 2.0599167.01854561 2.948805.059103 1.0644428.04854978 1.7914192.21762049 2.4275284.46485515.6576252.2555314 1.2153322.59748377 1.7713323 1.15344418.5559605.55600011.8979128 1.1137072 1.1534839 1.77133234.2471949.63610922.4162657 1.36308552.4648154 2.4275284.0470467 1.03111039.0593723 1.3837179.0601418 3.85943983v.5275913c-.0007695 2.4756861-.0130951 2.8282936-.0601418 3.859404-.0485497 1.0644428-.2176205 1.7914192-.4648154 2.4275284-.2555711.6576252-.5975234 1.2153322-1.1534839 1.7713323-.5560001.5559605-1.1137071.8979128-1.7713323 1.1534839-.6361092.2471949-1.3630856.4162657-2.4275284.4648154-1.0311104.0470467-1.3837179.0593723-3.859404.0601418h-.5275913c-2.47572193-.0007695-2.82832944-.0130951-3.85943983-.0601418-1.06444288-.0485497-1.79141918-.2176205-2.4275284-.4648154-.65762514-.2555711-1.21533223-.5975234-1.77133234-1.1534839-.55596041-.5560001-.89791278-1.1137071-1.15344418-1.7713323-.24723466-.6361092-.41630537-1.3630856-.46485515-2.4275284-.04055739-.8888883-.05531154-1.2735384-.059103-2.948805v-2.3488022c.00379146-1.67528956.01854561-2.05993966.059103-2.94882793.04854978-1.06444288.21762049-1.79141918.46485515-2.4275284.2555314-.65762514.59748377-1.21533223 1.15344418-1.77133234.55600011-.55596041 1.1137072-.89791278 1.77133234-1.15344418.63610922-.24723466 1.36308552-.41630537 2.4275284-.46485515.88888827-.04055739 1.27353837-.05531154 2.94882793-.059103h2.3488022zm1.907955 1.80115495h-1.4671018c-2.00736467.00208578-2.35848076.01467974-3.30754746.05798153-.9750446.04446095-1.50456662.20737859-1.85695938.34433421-.46680032.18141657-.7999399.39812402-1.14987142.74809525-.34997123.34993152-.56667868.6830711-.74809525 1.14987142-.13695562.35239276-.29987326.88191478-.34433421 1.85695938-.04330179.9490667-.05589575 1.30018279-.05798153 3.30754746v1.4671018c.00208578 2.0073358.01467974 2.3584518.05798153 3.3075186.04446095.9750445.20737859 1.5045665.34433421 1.8569593.18141657.4668003.39816372.7999399.74809525 1.1498714.34993152.3499712.6830711.5666787 1.14987142.7480953.35239276.1369556.88191478.2998732 1.85695938.3443341 1.05439946.0481131 1.370628.0583154 4.04110376.0583154 2.670436 0 2.9867042-.0102023 4.0410641-.0583154.9750445-.0444609 1.5045665-.2073785 1.8569593-.3443341.4668003-.1814166.7999399-.3981241 1.1498714-.7480953.3499712-.3499315.5666787-.6830711.7480953-1.1498714.1369556-.3523928.2998732-.8819148.3443341-1.8569593.0481131-1.0545186.0583154-1.3708265.0583154-4.0410641 0-2.67027728-.0102023-2.9865852-.0583154-4.04110376-.0444609-.9750446-.2073785-1.50456662-.3443341-1.85695938-.1814166-.46680032-.3981241-.7999399-.7480953-1.14987142-.3499315-.34997123-.6830711-.56667868-1.1498714-.74809525-.3523928-.13695562-.8819148-.29987326-1.8569593-.34433421-.9490668-.04330179-1.3001828-.05589575-3.3075186-.05798153zm-.733546 3.19804633c2.7615764 0 5.00026 2.23868356 5.00026 5.00029872 0 2.7615764-2.2386836 5.00026-5.00026 5.00026-2.76161516 0-5.00029872-2.2386836-5.00029872-5.00026 0-2.76161516 2.23868356-5.00029872 5.00029872-5.00029872zm0 1.75448195c-1.7926321 0-3.24581677 1.45318467-3.24581677 3.24581677 0 1.7925934 1.45318467 3.245778 3.24581677 3.245778 1.7925934 0 3.245778-1.4531846 3.245778-3.245778 0-1.7926321-1.4531846-3.24581677-3.245778-3.24581677zm5.4169293-3.42124174c.6904009 0 1.2500905.55968956 1.2500905 1.25009052 0 .69040095-.5596896 1.25004916-1.2500905 1.25004916-.6903596 0-1.2500492-.55964821-1.2500492-1.25004916 0-.69040096.5596896-1.25009052 1.2500492-1.25009052z" fill-rule="evenodd"/></svg>