<svg height="24" viewBox="0 0 24 24" width="24" xmlns="http://www.w3.org/2000/svg"><path d="m3.47186258 13.4213562 2.84271247-2.8427124c.39249669-.3924967 1.02885955-.3924967 1.42135624 0 .36446121.3644612.39049415.9391947.07809883 1.3336949l-.07809883.0876613-2.84271248 2.8427125c-1.17749006 1.17749-1.17749006 3.0865786 0 4.2640687 1.13543685 1.1354368 2.95114835 1.1759881 4.13517624.1216539l.12889248-.1216539 2.84271247-2.8427125c.3924967-.3924967 1.0288596-.3924967 1.4213562 0 .3644612.3644612.3904942.9391948.0780989 1.3336949l-.0780989.0876613-2.8427124 2.8427125c-1.96248347 1.9624835-5.14429779 1.9624835-7.10678122 0-1.91083914-1.9108391-1.96112438-4.9776782-.15085573-6.9493595zm9.94949362-9.94949362c1.9624835-1.96248344 5.1442978-1.96248344 7.1067812 0 1.9624835 1.96248343 1.9624835 5.14429775 0 7.10678122l-2.8427125 2.8427124c-.3924966.3924967-1.0288595.3924967-1.4213562 0-.3924967-.3924966-.3924967-1.0288595 0-1.4213562l2.8427125-2.84271247c1.17749-1.17749007 1.17749-3.08657866 0-4.26406872-1.1774901-1.17749006-3.0865787-1.17749006-4.2640687 0l-2.8427125 2.84271248c-.3924967.39249669-1.0288596.39249669-1.4213562 0-.3924967-.39249669-.3924967-1.02885955 0-1.42135624zm0 5.68542495c.3924967-.39249669 1.0288596-.39249669 1.4213563 0 .3924967.39249668.3924967 1.02885957 0 1.42135627l-4.2640687 4.2640687c-.3924967.3924967-1.02885959.3924967-1.42135627 0-.39249669-.3924967-.39249669-1.0288596 0-1.4213563z" fill-rule="evenodd"/></svg>