<svg width="20" height="20" viewBox="0 0 20 20" fill="none" xmlns="http://www.w3.org/2000/svg">
<path fill-rule="evenodd" clip-rule="evenodd" d="M6.66683 17.5001C6.66683 17.9274 6.34513 18.2797 5.93068 18.3278L5.83349 18.3334L4.16683 18.3334C2.83543 18.3334 1.74711 17.2926 1.67107 15.9803L1.66683 15.8334L1.66683 4.16675C1.66683 2.83535 2.70759 1.74703 4.01993 1.67099L4.16683 1.66675L5.8335 1.66675C6.29373 1.66675 6.66683 2.03984 6.66683 2.50008C6.66683 2.92744 6.34513 3.27967 5.93068 3.32781L5.8335 3.33341L4.16683 3.33341C3.73947 3.33341 3.38724 3.65511 3.3391 4.06956L3.3335 4.16675L3.33349 15.8334C3.33349 16.2608 3.65519 16.613 4.06964 16.6611L4.16683 16.6667L5.83349 16.6667C6.29373 16.6667 6.66683 17.0398 6.66683 17.5001ZM18.3243 9.87636L18.3302 9.92506L18.3335 10.0001L18.3312 10.0628L18.3166 10.1674L18.292 10.2602L18.2554 10.3528L18.2118 10.434L18.1504 10.5213L18.0894 10.5893L15.5894 13.0893C15.264 13.4148 14.7363 13.4148 14.4109 13.0893C14.0855 12.7639 14.0855 12.2363 14.4109 11.9108L15.4885 10.8334L7.50016 10.8334C7.03992 10.8334 6.66683 10.4603 6.66683 10.0001C6.66683 9.53984 7.03992 9.16675 7.50016 9.16675L15.4885 9.16675L14.4109 8.08934C14.0855 7.7639 14.0855 7.23626 14.4109 6.91083C14.7363 6.58539 15.264 6.58539 15.5894 6.91083L18.0894 9.41083C18.1189 9.44032 18.1457 9.47148 18.1699 9.50399L18.2296 9.5967L18.2741 9.69063L18.3036 9.77842L18.3243 9.87636Z" fill="#4C3410"/>
</svg>
