<svg height="24" viewBox="0 0 24 24" width="24" xmlns="http://www.w3.org/2000/svg"><path d="m12 2c4.9705627 0 9 3.98572446 9 8.9023647 0 3.2534912-2.7223284 6.6934286-8.0517474 10.4407869l-.9482526.6568484-.5722041-.3949045c-5.57737526-3.8492042-8.4277959-7.373577-8.4277959-10.7027308 0-4.91664024 4.02943725-8.9023647 9-8.9023647zm0 1.97830328c-3.86599325 0-7 3.10000791-7 6.92406142 0 2.4024891 2.29671943 5.3340803 7 8.6794637 4.7032806-3.3453834 7-6.2769746 7-8.6794637 0-3.82405351-3.1340068-6.92406142-7-6.92406142zm0 2.02169672c2.209139 0 4 1.790861 4 4s-1.790861 4-4 4-4-1.790861-4-4 1.790861-4 4-4zm0 2c-1.1045695 0-2 .8954305-2 2s.8954305 2 2 2 2-.8954305 2-2-.8954305-2-2-2z" fill-rule="evenodd"/></svg>