<svg height="24" viewBox="0 0 24 24" width="24" xmlns="http://www.w3.org/2000/svg"><path d="m19 11c.5522847 0 1 .4477153 1 1 0 4.0792885-3.0531957 7.445465-6.9990449 7.9379871l-.0009551 1.0620129c0 .5522847-.4477153 1-1 1s-1-.4477153-1-1l.0000487-1.0618877c-3.94633514-.4920764-7.0000487-3.8584779-7.0000487-7.9381123 0-.5522847.44771525-1 1-1s1 .4477153 1 1c0 3.3137085 2.6862915 6 6 6s6-2.6862915 6-6c0-.5522847.4477153-1 1-1zm-7-9c2.209139 0 4 1.790861 4 4v6c0 2.209139-1.790861 4-4 4s-4-1.790861-4-4v-6c0-2.209139 1.790861-4 4-4zm0 2c-1.1045695 0-2 .8954305-2 2v6c0 1.1045695.8954305 2 2 2s2-.8954305 2-2v-6c0-1.1045695-.8954305-2-2-2z" fill-rule="evenodd"/></svg>