<svg height="24" viewBox="0 0 24 24" width="24" xmlns="http://www.w3.org/2000/svg"><path d="m5 20c-.70425665 0-1.17526354-.7021309-.94021974-1.3413847l.04579255-.1058289 1.15541753-2.3108351c.43739462-.8747892.68607675-1.8304192.73143923-2.805013l.00757043-.3254821v-3.1114562c0-2.97306317 2.16238395-5.44107451 5.0001915-5.91707369l-.0001915-1.08292631c0-.55228475.4477153-1 1-1s1 .44771525 1 1l.0008069 1.08309386c2.758502.46317688 4.8785677 2.80862923 4.9942206 5.67038062l.0049725.24652552v3.1114562c0 .9780441.2049427 1.9439996.6002208 2.8359895l.1387889.2945056 1.1554175 2.3108351c.3149531.6299063-.1024111 1.3651902-.7792919 1.4408436l-.1151353.00637h-5c0 1.1045695-.8954305 2-2 2s-2-.8954305-2-2zm7-14c-2.14219539 0-3.89107888 1.68396847-3.99510469 3.80035966l-.00489531.19964034v3.1114562c0 1.280772-.27334726 2.5454206-.80019832 3.7098875l-.14995696.3150348-.43181073.8636215h10.76393201l-.4318107-.8636215c-.5727787-1.1455573-.8938575-2.398938-.943393-3.6760838l-.0067623-.3488385v-3.1114562c0-2.209139-1.790861-4-4-4z" fill-rule="evenodd"/></svg>