<svg height="24" viewBox="0 0 24 24" width="24" xmlns="http://www.w3.org/2000/svg"><path d="m9.5547002 9.83205029c.27819866-.18546577.4452998-.4976971.4452998-.83205029v-4c0-1.65685425-1.34314575-3-3-3h-4c-.55228475 0-1 .44771525-1 1 0 9.9411255 9.0588745 19 19 19 .5522847 0 1-.4477153 1-1v-4c0-1.6568542-1.3431458-3-3-3h-4c-.3343532 0-.6465845.1671011-.8320503.4452998l-1.9053451 2.8580177c-2.0752136-1.3418335-3.89335655-3.1141402-5.29186393-5.1543551l-.27405817-.411567zm5.9804836 6.16794971h3.4648162c.5522847 0 1 .4477153 1 1v2.9653271c-1.9372424-.1340495-3.8278603-.6521686-5.5912547-1.4737583l-.4046421-.1949479zm-11.50051092-12h2.96532712c.55228475 0 1 .44771525 1 1v3.46481624l-2.29662086 1.53108057c-.93455438-1.87744809-1.52434522-3.90963578-1.66870626-5.99589681z" fill-rule="evenodd"/></svg>