<svg height="24" viewBox="0 0 24 24" width="24" xmlns="http://www.w3.org/2000/svg"><path d="m15 6c1.5976809 0 2.9036609 1.24891996 2.9949073 2.82372721l.0050927.17627279v10c0 1.5976809-1.24892 2.9036609-2.8237272 2.9949073l-.1762728.0050927h-10c-1.59768088 0-2.90366088-1.24892-2.99490731-2.8237272l-.00509269-.1762728v-10c0-1.59768088 1.24891996-2.90366088 2.82372721-2.99490731l.17627279-.00509269zm1 8.762-3.2317787 3.8781844c-.3495593.4194712-.9635089.4761502-1.382346.1491935l-.0929821-.0822711-2.2928932-2.2921068-3.586 3.585h9.586c.5128358 0 .9355072-.3860402.9932723-.8833789l.0067277-.1166211zm3-12.762c1.5976809 0 2.9036609 1.24891996 2.9949073 2.82372721l.0050927.17627279v13c0 .5522847-.4477153 1-1 1-.5128358 0-.9355072-.3860402-.9932723-.8833789l-.0067277-.1166211v-13c0-.51283584-.3860402-.93550716-.8833789-.99327227l-.1166211-.00672773h-13c-.55228475 0-1-.44771525-1-1 0-.51283584.38604019-.93550716.88337887-.99327227l.11662113-.00672773zm-4 6h-10c-.51283584 0-.93550716.38604019-.99327227.88337887l-.00672773.11662113v9.584l4.29289322-4.2911068c.36048396-.3604839.92771502-.3882135 1.32000622-.0831886l.09420734.0831886 2.22489322 2.2241068 4.068-4.881v-2.636c0-.51283584-.3860402-.93550716-.8833789-.99327227zm-8.5 1c.82842712 0 1.5.67157288 1.5 1.5 0 .8284271-.67157288 1.5-1.5 1.5s-1.5-.6715729-1.5-1.5c0-.82842712.67157288-1.5 1.5-1.5z"/></svg>