<svg height="24" viewBox="0 0 24 24" width="24" xmlns="http://www.w3.org/2000/svg"><path d="m19 2c1.6568542 0 3 1.34314575 3 3v14c0 1.6568542-1.3431458 3-3 3h-14c-1.65685425 0-3-1.3431458-3-3v-14c0-1.65685425 1.34314575-3 3-3zm1 10.302-4.1679497 6.2527002c-.3077555.4616332-.9257088.5790561-1.3780197.2832567l-.094215-.0697356-5.17231257-4.3102605-3.95950303 5.5420392h13.772c.5522847 0 1-.4477153 1-1zm-1-8.302h-14c-.55228475 0-1 .44771525-1 1v13.278l4.18626653-5.8592382c.31390398-.4394656.9132252-.5450489 1.35497449-.2597788l.09894338.0727957 5.1450724 4.2875604 5.2147432-7.8233391v-3.696c0-.55228475-.4477153-1-1-1zm-11 2c1.1045695 0 2 .8954305 2 2s-.8954305 2-2 2-2-.8954305-2-2 .8954305-2 2-2z" fill-rule="evenodd"/></svg>