<svg height="24" viewBox="0 0 24 24" width="24" xmlns="http://www.w3.org/2000/svg"><path d="m21 2c-.6402892 0-1.2543539.25435391-1.7071068.70710678l-2.8925361 2.89253616c-.2483804.24838035-.6088674.34822948-.9496424.26303572l-11.4507147-2.86267866-1.01894175 1.01894175c-.39052429.39052429-.39052429 1.02368927 0 1.41421356.07600132.07600132.16375828.13925295.25989319.18732041l8.75904856 4.37952428-4 4h-4.38196601c-.37877206 0-.72503518.2140024-.89442719.5527864l-.7236068 1.4472136 4 2 2 4 1.4472136-.7236068c.33878402-.169392.5527864-.5156551.5527864-.8944272v-4.381966l4-4 4.3795243 8.7590486c.2469892.4939785.8476623.6942028 1.3416408.4472136.0961349-.0480675.1838918-.1113191.2598932-.1873205l1.0189417-1.0189417-2.8626787-11.45071465c-.0851937-.34077502.0146554-.70126206.2630358-.94964241l2.8925361-2.89253616c.4527529-.45275287.7071068-1.06681753.7071068-1.70710678 0-.55228475-.4477153-1-1-1z" fill-rule="evenodd"/></svg>