<svg height="24" viewBox="0 0 24 24" width="24" xmlns="http://www.w3.org/2000/svg"><path d="m12 2c5.5228475 0 10 4.4771525 10 10s-4.4771525 10-10 10-10-4.4771525-10-10 4.4771525-10 10-10zm0 2c-4.418278 0-8 3.581722-8 8s3.581722 8 8 8 8-3.581722 8-8-3.581722-8-8-8zm-4.70675 3.29325c.36092308-.36092308.92719527-.38868639 1.31971051-.08328994l.09428949.08328994 3.293 3.293 3.293-3.293c.391-.391 1.023-.391 1.414 0 .3609231.36092308.3886864.92719527.0832899 1.31971051l-.0832899.09428949-3.293 3.293 3.293 3.293c.391.391.391 1.023 0 1.414-.195.195-.451.293-.707.293-.2133333 0-.4266667-.0680556-.6046991-.203588l-.1023009-.089412-3.293-3.293-3.293 3.293c-.195.195-.451.293-.707.293s-.512-.098-.707-.293c-.36092308-.3609231-.38868639-.9271953-.08328994-1.3197105l.08328994-.0942895 3.293-3.293-3.293-3.293c-.391-.391-.391-1.023 0-1.414z" fill-rule="evenodd"/></svg>