<svg height="24" viewBox="0 0 24 24" width="24" xmlns="http://www.w3.org/2000/svg"><path d="m4.98313549 11.0001422c.5127629-.0086487.94188449.3702084 1.00802876.8665022l.00869353.1164911.00363106.22375c.10896147 3.2252893 2.75974653 5.7931116 5.99650826 5.7931116.1869641 0 .3726754-.0085218.5567494-.0254206l-.2638533-.2674697c-.3905243-.3905243-.3905243-1.0236893 0-1.4142136s1.0236893-.3905243 1.4142136 0l2 2c.3905243.3905243.3905243 1.0236893 0 1.4142136l-2 2c-.3905243.3905243-1.0236893.3905243-1.4142136 0s-.3905243-1.0236893 0-1.4142136l.3182573-.315938c-.202546.0153264-.4063709.0230419-.6111534.0230419-4.2312966 0-7.71113558-3.2905597-7.98333285-7.4894768l-.01246302-.253006-.00405901-.2406498c-.00931402-.5522062.43078706-1.0074083.98299327-1.0167223zm6.72397131-8.70724898c.3604839.36048396.3882135.92771502.0831886 1.32000622l-.0831886.09420734-.3179439.31591182c.2024422-.01531093.4061615-.0230186.6108371-.0230186 4.418278 0 8 3.581722 8 8 0 .5522847-.4477153 1-1 1s-1-.4477153-1-1c0-3.3137085-2.6862915-6-6-6-.1870661 0-.3728784.00853145-.5570517.02544919l.2641585.26744403c.3905243.39052429.3905243 1.02368927 0 1.41421356-.360484.36048396-.927715.3882135-1.3200062.08318861l-.0942074-.08318861-1.99999998-2c-.36048396-.36048396-.3882135-.92771502-.08318861-1.32000622l.08318861-.09420734 1.99999998-2c.3905243-.39052429 1.0236893-.39052429 1.4142136 0z" fill-rule="evenodd"/></svg>