<svg height="24" viewBox="0 0 24 24" width="24" xmlns="http://www.w3.org/2000/svg"><path d="m10.8975753 2.00188828h2.1225036c.0641732.00297861.1205286.01031856.1996677.02755074.5804548.12639142.8011302.33481303 1.3413273 1.6112938l.0880487.21056919.3394794.84117845.0279188.01147637.4374065-.19800645c.9526346-.42599511 1.4437209-.605431 1.7738969-.65549503l.0683987-.00879053.1246493-.00672494c.2973168 0 .6001314.10530494.8318957.28865596l.1096069.09805315 1.3569455 1.35130223.0943306.0996982c.4262362.46952552.466013.80239823-.0054254 2.01557932l-.1568927.39138054-.3697852.87496214.007011.01708314.8471061.31633989.4083863.16140603c1.0549622.43131387 1.2717006.66119262 1.412721 1.18923442.028435.1064731.0385332.1790106.0418052.269051l.0014228.0977797v1.9077313c0 .1356139-.0046462.2122037-.0380223.346235-.1403732.5637082-.3487308.7783593-1.6165085 1.3138796l-.209124.08732-.8353849.3371072-.0058046.014069.3020776.6598959c.7511357 1.669488.7773951 2.035498.2836584 2.585302l-.0617313.0669538-1.3929032 1.3918591c-.2493227.2520868-.6046025.3908594-.9483371.3908594-.2919463 0-.7504515-.1387907-1.5320107-.4522001l-.4184253-.1714221-.4766148-.2015205-.0272631.0112507-.2462705.6604949c-.6029577 1.5885696-.8095238 1.8464964-1.4289435 2.0063403-.0915237.0236181-.156989.0336916-.2313254.037783l-.1225239.0025959h-1.9089168c-.1191362 0-.1863724-.0035649-.3047031-.0292226-.5802207-.1258096-.80178477-.3346767-1.34304789-1.6119202l-.08821828-.2106922-.34005559-.8416185-.02616532-.0108022-.63528793.2855933c-1.01614552.4473248-1.45635462.5834741-1.77009102.5834741-.29379964 0-.59297755-.1032466-.83097449-.2883201l-.11359191-.0992566-1.3550585-1.3533168-.15474038-.1687447c-.37160878-.4372283-.38987965-.7762948.06624555-1.9432974l.23768664-.5841624.29014778-.6820584-.00605311-.0146642-.656882-.2447796c-1.31775178-.5000462-1.72385646-.7303653-1.91683863-1.1508599l-.0521995-.1323136-.04360329-.1464835c-.0246724-.0936458-.03520166-.1607415-.03947979-.2370859l-.00271534-.1259279v-1.9088741c0-.1366766.00473793-.2139418.03877211-.3491213.12688874-.5039859.30698922-.727821 1.25569542-1.15293809l.39319048-.16979429 1.00967016-.40830359.00691939-.01681461-.37750363-.83292277c-.62291122-1.41486417-.67450317-1.84566075-.28148973-2.32681197l.0537736-.06312944.12733593-.13496427 1.34979817-1.34673877c.24729947-.24867263.6010381-.38886138.94533385-.38886138.24626028 0 .60784568.09744129 1.18655485.31663102l.58221023.23079913.66002249.2766233.02705275-.01125727.24814998-.66481486c.60856623-1.59999229.82579745-1.86756222 1.46772775-2.01126257.0809745-.01812668.1387355-.02585551.2043615-.02909659zm1.6254288 1.99811172h-1.1149314l-.1572066.36852532c-.0596944.14650785-.1270353.3176415-.2030854.5162802l-.3484635.93212778c-.0835701.22068073-.2419535.40346329-.4455643.51778939l-.1054373.05131687-.81911549.34085262c-.20680276.08605535-.43521925.09971374-.64880141.04110375l-.12607758-.04383718-.96906924-.40847673-.52344638-.20873655-.35182762-.12985213-.79021147.78841812.09299906.23490662c.03634761.08847591.07817308.18740163.12586629.2976054l.16107269.36527376.40395533.88309428c.09675921.21029897.11698793.44624106.05986695.66770903l-.0435611.13082294-.33493783.81392231c-.08867695.2154912-.24927974.3920751-.45260697.5009717l-.1050888.0486745-1.08757577.4371777-.54366766.2330427-.1960886.0908023v1.1301641l.23463179.1017221c.08883087.0371505.18857991.0776555.30014086.121849l.37101237.1439808.90153479.3347962c.22728669.0819322.41588792.242822.53286268.4511942l.05236601.1079972.3349865.8115373c.08602098.2083942.09861969.4384229.03812671.6529425l-.04506414.1265534-.38877902.9123267-.24382333.6018152-.1187816.3195725.79026709.7892556.23530648-.0930049c.08667443-.0353005.18166686-.0749499.2852145-.1190983l.72584575-.320076.5234519-.2409864c.21904927-.1046551.46733134-.1254851.69866022-.0612384l.11403785.0392188.82393439.340157c.2183927.0901623.3965829.2541673.504805.4614124l.0481426.1070843.2050428.5173891.2917962.7095793.1688634.3877282.0915713.1966134h1.1182297l.1596972-.3764613.2079845-.5311258.3386774-.9080431c.0835131-.222642.2430856-.4069715.4484655-.5217363l.1063672-.0514407.8204298-.338567c.2044021-.0843507.4297578-.098121.6409672-.0413637l.1247474.0425173.7725742.3276883.5638425.2296447.3085641.1190053.2036309.0737186.7911733-.7897783-.1524669-.3762547-.2286826-.5215343-.4047719-.8823778c-.0971186-.2106645-.1173997-.4471186-.0600224-.6690007l.043752-.1310577.3343537-.8103945c.0882208-.2138264.2473072-.3893104.4487358-.4982296l.1041108-.0487819.9211286-.3702777.4701906-.1971131.1293171-.0562237.3128512-.1431439v-1.1290486l-.3136621-.1338972-.4248496-.1681266-1.0723951-.3992053c-.2267737-.0825133-.4147289-.2436878-.5311164-.4520734l-.0520781-.1079815-.3344024-.81481669c-.0853155-.20788262-.0976565-.43713563-.0373782-.65097131l.0448785-.12615702.3104752-.72589068c.0808039-.19196582.1511577-.36219161.2119091-.51264714l.1089508-.27513435.1187102-.32151049-.7906773-.7873916-.2354541.09316325c-.1302147.05309899-.2794064.11611841-.448681.18970791l-.1760099.07713693-.9228634.41857139c-.2099398.09620089-.4453018.11620947-.6662505.05923547l-.130521-.04342863-.823399-.33846765c-.2155381-.08859945-.3921915-.24914804-.5011645-.45244969l-.0487132-.10507842-.2911315-.72839324-.2109752-.51029353-.1168588-.27139222zm-.5225319 4c2.2061452 0 3.9995278 1.79301532 3.9995278 3.999133 0 2.2062489-1.7935146 4.000867-3.9995278 4.000867-2.20664731 0-4.0004722-1.7943023-4.0004722-4.000867 0-2.20643353 1.79369264-3.999133 4.0004722-3.999133zm0 2c-1.1024579 0-2.0004722.897517-2.0004722 1.999133 0 1.1021143.8985135 2.000867 2.0004722 2.000867 1.1011682 0 1.9995278-.8989123 1.9995278-2.000867 0-1.1014565-.8978604-1.999133-1.9995278-1.999133z" fill-rule="evenodd"/></svg>