<svg height="24" viewBox="0 0 24 24" width="24" xmlns="http://www.w3.org/2000/svg"><path d="m18 2c2.209139 0 4 1.790861 4 4s-1.790861 4-4 4c-1.1698029 0-2.2223202-.50215889-2.9537505-1.3026751l-5.0462495 2.8829976v.839355l5.0462495 2.8829976c.7314303-.8005162 1.7839476-1.3026751 2.9537505-1.3026751 2.209139 0 4 1.790861 4 4s-1.790861 4-4 4-4-1.790861-4-4c0-.3197625.0375207-.6307617.1083996-.9288349l-4.83926085-2.7656564c-.72426369 1.0251077-1.91852976 1.6944913-3.26913875 1.6944913-2.209139 0-4-1.790861-4-4s1.790861-4 4-4c1.35060899 0 2.54487506.66938359 3.26913875 1.69449132l4.83926085-2.76565646c-.0708789-.2980732-.1083996-.60907232-.1083996-.92883486 0-2.209139 1.790861-4 4-4zm0 14c-1.1045695 0-2 .8954305-2 2s.8954305 2 2 2 2-.8954305 2-2-.8954305-2-2-2zm-12-6c-1.1045695 0-2 .8954305-2 2s.8954305 2 2 2 2-.8954305 2-2-.8954305-2-2-2zm12-6c-1.1045695 0-2 .8954305-2 2s.8954305 2 2 2 2-.8954305 2-2-.8954305-2-2-2z" fill-rule="evenodd"/></svg>