<svg height="24" viewBox="0 0 24 24" width="24" xmlns="http://www.w3.org/2000/svg"><path d="m12 16c1.3062521 0 2.4175144.8348501 2.8293257 2.0000889l6.1706743-.0000889c.5522847 0 1 .4477153 1 1s-.4477153 1-1 1l-6.1710242.0009007c-.4120906 1.1647219-1.5230936 1.9990993-2.8289758 1.9990993s-2.41688515-.8343774-2.82897577-1.9990993l-6.17102423-.0009007c-.55228475 0-1-.4477153-1-1s.44771525-1 1-1l6.17067428.0000889c.4118113-1.1652388 1.52307362-2.0000889 2.82932572-2.0000889zm0 2c-.5522847 0-1 .4477153-1 1s.4477153 1 1 1 1-.4477153 1-1-.4477153-1-1-1zm7-9c1.6568542 0 3 1.3431458 3 3s-1.3431458 3-3 3c-1.3058822 0-2.4168852-.8343774-2.8289758-1.9990993l-13.1710242-.0009007c-.55228475 0-1-.4477153-1-1s.44771525-1 1-1l13.1706743.0000889c.4118113-1.1652388 1.5230736-2.0000889 2.8293257-2.0000889zm0 2c-.5522847 0-1 .4477153-1 1s.4477153 1 1 1 1-.4477153 1-1-.4477153-1-1-1zm-14-9c1.31179956 0 2.42694971.84195618 2.83453458 2.01495267.0534518-.01025785.10891034-.01495267.16546542-.01495267h13c.5522847 0 1 .44771525 1 1s-.4477153 1-1 1h-13c-.05655508 0-.11201362-.00469482-.16600715-.01371599-.40704314 1.17175981-1.52219329 2.01371599-2.83399285 2.01371599-1.65685425 0-3-1.34314575-3-3s1.34314575-3 3-3zm0 2c-.55228475 0-1 .44771525-1 1s.44771525 1 1 1 1-.44771525 1-1-.44771525-1-1-1z" fill-rule="evenodd"/></svg>