<svg height="24" viewBox="0 0 24 24" width="24" xmlns="http://www.w3.org/2000/svg"><path d="m13 2c1.5976809 0 2.9036609 1.24891996 2.9949073 2.82372721l.0050927.17627279v3h3c1.5976809 0 2.9036609 1.24891996 2.9949073 2.8237272l.0050927.1762728v8c0 1.5976809-1.24892 2.9036609-2.8237272 2.9949073l-.1762728.0050927h-8c-1.59768088 0-2.90366088-1.24892-2.99490731-2.8237272l-.00509269-.1762728v-3h-3c-1.59768088 0-2.90366088-1.24892-2.99490731-2.8237272l-.00509269-.1762728v-8c0-1.59768088 1.24891996-2.90366088 2.82372721-2.99490731l.17627279-.00509269zm6 8h-3v3c0 1.5976809-1.24892 2.9036609-2.8237272 2.9949073l-.1762728.0050927h-3v3c0 .5128358.3860402.9355072.8833789.9932723l.1166211.0067277h8c.5128358 0 .9355072-.3860402.9932723-.8833789l.0067277-.1166211v-8c0-.5128358-.3860402-.9355072-.8833789-.9932723z" fill-rule="evenodd"/></svg>