<svg height="24" viewBox="0 0 24 24" width="24" xmlns="http://www.w3.org/2000/svg"><path d="m12 2c5.5228475 0 10 4.4771525 10 10s-4.4771525 10-10 10-10-4.4771525-10-10 4.4771525-10 10-10zm0 2c-4.418278 0-8 3.581722-8 8s3.581722 8 8 8 8-3.581722 8-8-3.581722-8-8-8zm3.2928932 4.29289322-5.2928932 5.29289318-1.29289322-1.2928932c-.39052429-.3905243-1.02368927-.3905243-1.41421356 0s-.39052429 1.0236893 0 1.4142136l2 2c.39052429.3905243 1.02368928.3905243 1.41421358 0l6-6.00000002c.3905243-.39052429.3905243-1.02368927 0-1.41421356s-1.0236893-.39052429-1.4142136 0z" fill-rule="evenodd"/></svg>