<svg height="24" viewBox="0 0 24 24" width="24" xmlns="http://www.w3.org/2000/svg"><path d="m10.5427323 2c.7888819 0 1.5454533.31338213 2.103277.87120589l8.4827848 8.48278481c1.1616079 1.1616078 1.1616079 3.0449463 0 4.2065541l-5.5682493 5.5682493c-1.1616078 1.1616079-3.0449463 1.1616079-4.2065541 0l-8.48278481-8.4827848c-.55782376-.5578237-.87120589-1.3143951-.87120589-2.103277v-5.56824933c0-1.64276158 1.33172139-2.97448297 2.97448297-2.97448297zm0 2h-5.56824933c-.53819208 0-.97448297.43629089-.97448297.97448297v5.56824933c0 .2584489.10266845.5063125.28541945.6890635l8.48278475 8.4827847c.3805593.3805593.9975678.3805593 1.3781271 0l5.5682492-5.5682492c.3805593-.3805593.3805593-.9975678 0-1.3781271l-8.4827847-8.48278475c-.182751-.182751-.4306146-.28541945-.6890635-.28541945zm-2.5427323 2c1.1045695 0 2 .8954305 2 2s-.8954305 2-2 2-2-.8954305-2-2 .8954305-2 2-2z" fill-rule="evenodd"/></svg>