<svg height="24" viewBox="0 0 24 24" width="24" xmlns="http://www.w3.org/2000/svg"><path d="m5 22c-1.65685425 0-3-1.3431458-3-3v-6c0-1.6568542 1.34314575-3 3-3h1.381l3.1717864-6.34164079c.4782833-.95656666 1.4265909-1.58153365 2.4838557-1.65174926l.1994259-.00660995h.263932c1.3254834 0 2.4100387 1.03153594 2.4946823 2.33562431l.0053177.16437569v5.5h3.998258c.197556 0 .3946284.0195141.588348.058258 1.566655.313331 2.6023407 1.7941215 2.3829701 3.356242l-.0295761.1738484-1.2 6c-.2687689 1.3438446-1.4107459 2.3268546-2.7640764 2.406439l-.1776656.0052126zm1-10h-1c-.55228475 0-1 .4477153-1 1v6c0 .5522847.44771525 1 1 1h1zm6.5-8h-.263932c-.3366863 0-.6476865.1690883-.8316105.44460233l-.0628167.10818407-3.23606799 6.472136c-.05207079.1041415-.0854201.216303-.09884033.331369l-.00673248.1158446v8.527864h9.798258c.4369576 0 .8182335-.2827196.9507521-.6898752l.0298289-.1140087 1.2-6c.108312-.5415597-.2429052-1.0683848-.784465-1.1766968l-.0975784-.0145526-.0985376-.0048667h-3.998258c-1.0543618 0-1.9181651-.8158778-1.9945143-1.8507377l-.0054857-.1492623v-5.5c0-.24545989-.1768752-.44960837-.4101244-.49194433z" fill-rule="evenodd"/></svg>