<svg height="24" viewBox="0 0 24 24" width="24" xmlns="http://www.w3.org/2000/svg"><path d="m12 2c5.5228475 0 10 4.4771525 10 10s-4.4771525 10-10 10-10-4.4771525-10-10 4.4771525-10 10-10zm0 2c-4.418278 0-8 3.581722-8 8s3.581722 8 8 8 8-3.581722 8-8-3.581722-8-8-8zm0 2c.5128358 0 .9355072.38604019.9932723.88337887l.0067277.11662113v4.5857864l1.7071068 1.7071068c.3905243.3905243.3905243 1.0236893 0 1.4142136-.360484.3604839-.927715.3882135-1.3200062.0831886l-.0942074-.0831886-2-2c-.1562803-.1562803-.2554915-.3589617-.2842208-.5756628l-.0086724-.131444v-5c0-.55228475.4477153-1 1-1z" fill-rule="evenodd"/></svg>