<svg height="24" viewBox="0 0 24 24" width="24" xmlns="http://www.w3.org/2000/svg"><path d="m17.0020048 13c.5522847 0 1 .4477153 1 1 0 .5128358-.3860402.9355072-.8833789.9932723l-.1166211.0067277h-11.58500005l3.29210679 3.2928932c.36048396.360484.38821349.927715.0831886 1.3200062l-.0831886.0942074c-.36048397.3604839-.92771502.3882135-1.32000623.0831886l-.09420734-.0831886-5-5c-.60257508-.6025751-.2205609-1.6142876.59347584-1.7011235l.11363094-.0059833zm-.3891054-8.79029539.0942074.08318861 5 5c.6025751.60257508.2205609 1.61428758-.5934759 1.70112348l-.1136309.0059833h-14c-.55228475 0-1-.4477153-1-1 0-.51283584.38604019-.93550716.88337887-.99327227l.11662113-.00672773h11.585l-3.2921068-3.29289322c-.3604839-.36048396-.3882135-.92771502-.0831886-1.32000622l.0831886-.09420734c.360484-.36048396.927715-.3882135 1.3200062-.08318861z"/></svg>