<svg height="24" viewBox="0 0 24 24" width="24" xmlns="http://www.w3.org/2000/svg"><path d="m17.7510477 5.00945512c.3646408-.35627855.9321554-.37742703 1.3208823-.06787256l.0932361.0842757.0970122.09946445c1.7464054 1.8442778 2.7378217 4.28296191 2.7378217 6.87467729 0 5.5228475-4.4771525 10-10 10s-10-4.4771525-10-10c0-2.4790321.90708036-4.81805072 2.52382631-6.64065648l.22484557-.24530089.08616203-.08818437c.38596842-.39502763 1.01909081-.40237156 1.41411843-.01640314.36464089.35627854.39894774.92314981.09849347 1.31895254l-.08209032.09516589-.07531189.0769043c-1.39806902 1.47641988-2.1900436 3.42451752-2.1900436 5.49952215 0 4.418278 3.581722 8 8 8s8-3.581722 8-8c0-1.9657939-.7108027-3.81768782-1.9651342-5.25294262l-.2140593-.23529946-.086162-.08818437c-.3859684-.39502763-.3786245-1.02815001.0164032-1.41411843zm-5.7510477-3.00945512c.5522847 0 1 .44771525 1 1v8c0 .5522847-.4477153 1-1 1s-1-.4477153-1-1v-8c0-.55228475.4477153-1 1-1z" fill-rule="evenodd"/></svg>