<svg height="24" viewBox="0 0 24 24" width="24" xmlns="http://www.w3.org/2000/svg"><path d="m19.9442107 7.98748548c.0126954.17499164.0126954.35002176.0126954.52501341 0 5.33747601-4.1243521 11.48750111-11.66246745 11.48750111-2.32235282 0-4.479705-.6625288-6.29443865-1.8124794.32996223.0374762.64719003.0499811.98984762.0499811 1.91621842 0 3.68020968-.6374805 5.088848-1.7249836-1.80203829-.0375147-3.31220044-1.2000086-3.83251497-2.8000202.25381935.0374762.50761917.062486.77414365.062486.36800925 0 .73605756-.0500196 1.07867609-.1374769-1.8781714-.3750316-3.28684878-2.0000144-3.28684878-3.96251415v-.04998113c.54566619.30000217 1.18023899.48749868 1.85278067.51247008-1.10406681-.7250149-1.82738995-1.96249978-1.82738995-3.36250988 0-.74998617.20300861-1.43748632.55836156-2.03749065 2.01778132 2.44999844 5.05080098 4.04997151 8.45179081 4.22500163-.0634377-.30000217-.1015238-.61247076-.1015238-.92497782 0-2.22502567 1.827429-4.03750508 4.0990004-4.03750508 1.1801999 0 2.2461806.48749871 2.9949335 1.27499958.9263709-.17499164 1.8146946-.51250851 2.6015336-.97499742-.3046105.9375212-.9518005 1.72502207-1.8020382 2.2249872.824886-.08745735 1.6243813-.31250707 2.3603998-.62497565-.5582834.79996729-1.256294 1.51243877-2.0557893 2.08747177z" fill-rule="evenodd"/></svg>