<svg height="24" viewBox="0 0 24 24" width="24" xmlns="http://www.w3.org/2000/svg"><path d="m6.29289322 15.2928932c.36048396-.3604839.92771502-.3882135 1.32000622-.0831886l.09420734.0831886 4.29289322 4.2928932 4.2928932-4.2928932c.3905243-.3905243 1.0236893-.3905243 1.4142136 0 .3604839.360484.3882135.927715.0831886 1.3200062l-.0831886.0942074-5 5c-.360484.3604839-.927715.3882135-1.3200062.0831886l-.0942074-.0831886-4.99999998-5c-.39052429-.3905243-.39052429-1.0236893 0-1.4142136zm6.41421358-12.99999998 5 5c.3905243.39052429.3905243 1.02368927 0 1.41421356s-1.0236893.39052429-1.4142136 0l-4.2928932-4.29289322-4.29289322 4.29289322c-.39052429.39052429-1.02368927.39052429-1.41421356 0s-.39052429-1.02368927 0-1.41421356l4.99999998-5c.3905243-.39052429 1.0236893-.39052429 1.4142136 0z" fill-rule="evenodd"/></svg>