<svg height="24" viewBox="0 0 24 24" width="24" xmlns="http://www.w3.org/2000/svg"><path d="m12 2c2.6887547 0 4.8818181 2.12230671 4.9953805 4.78311038l.0046195.21688962v3c1.6568542 0 3 1.3431458 3 3v6c0 1.6568542-1.3431458 3-3 3h-10c-1.65685425 0-3-1.3431458-3-3v-6c0-1.6568542 1.34314575-3 3-3h8v-3c0-1.59768088-1.24892-2.90366088-2.8237272-2.99490731l-.1762728-.00509269c-1.6568542 0-3 1.34314575-3 3 0 .55228475-.44771525 1-1 1s-1-.44771525-1-1c0-2.76142375 2.23857625-5 5-5zm5 10h-10c-.55228475 0-1 .4477153-1 1v6c0 .5522847.44771525 1 1 1h10c.5522847 0 1-.4477153 1-1v-6c0-.5522847-.4477153-1-1-1z" fill-rule="evenodd"/></svg>