<svg height="24" viewBox="0 0 24 24" width="24" xmlns="http://www.w3.org/2000/svg"><path d="m21 16c.5128358 0 .9355072.3860402.9932723.8833789l.0067277.1166211v2c0 1.5976809-1.24892 2.9036609-2.8237272 2.9949073l-.1762728.0050927h-14c-1.59768088 0-2.90366088-1.24892-2.99490731-2.8237272l-.00509269-.1762728v-2c0-.5522847.44771525-1 1-1 .51283584 0 .93550716.3860402.99327227.8833789l.00672773.1166211v2c0 .5128358.38604019.9355072.88337887.9932723l.11662113.0067277h14c.5128358 0 .9355072-.3860402.9932723-.8833789l.0067277-.1166211v-2c0-.5522847.4477153-1 1-1zm-9.1484669-13.9889822.0584349-.00701982.090032-.00399798.0752385.00278786.1254873.01745221.1114167.02949802.111079.04393527.0974873.05232209.1047402.07369332.0816578.07320445 3 3c.3905243.39052429.3905243 1.02368927 0 1.41421356s-1.0236893.39052429-1.4142136 0l-1.2928932-1.29310678v9.586c0 .5522847-.4477153 1-1 1s-1-.4477153-1-1v-9.586l-1.29289322 1.29310678c-.39052429.39052429-1.02368927.39052429-1.41421356 0s-.39052429-1.02368927 0-1.41421356l2.99999998-3c.0353941-.03539405.0727812-.06758027.1118002-.09655864l.1112445-.07166341.1127261-.05344568.105343-.03538035z" fill-rule="evenodd"/></svg>