<svg height="24" viewBox="0 0 24 24" width="24" xmlns="http://www.w3.org/2000/svg"><path d="m7 16h10c2.7614237 0 5 2.2385763 5 5 0 .5522847-.4477153 1-1 1-.5128358 0-.9355072-.3860402-.9932723-.8833789l-.0118204-.2928939c-.0878669-1.516481-1.3021535-2.7307676-2.8186345-2.8186345l-.1762728-.0050927h-10c-1.65685425 0-3 1.3431458-3 3 0 .5522847-.44771525 1-1 1s-1-.4477153-1-1c0-2.6887547 2.12230671-4.8818181 4.78311038-4.9953805zm5-14c.4062134 0 .8078123.04051239 1.2003571.12029429.5412197.10999897.8907931.63791593.7807941 1.17913555-.109999.54121961-.6379159.89079302-1.1791355.78079405-.2616233-.05317304-.5297782-.08022389-.8020157-.08022389-2.209139 0-4 1.790861-4 4s1.790861 4 4 4c1.2748073 0 2.4481613-.5991915 3.2000781-1.5996172.3318218-.44148914.9587143-.53039206 1.4002035-.1985702.4414892.3318219.5303921.9587143.1985702 1.4002035-1.1257735 1.4978423-2.8884567 2.3979839-4.7988518 2.3979839-3.3137085 0-6-2.6862915-6-6s2.6862915-6 6-6zm7 0c.5522847 0 1 .44771525 1 1v1h1c.5522847 0 1 .44771525 1 1s-.4477153 1-1 1h-1v1c0 .55228475-.4477153 1-1 1s-1-.44771525-1-1v-1h-1c-.5522847 0-1-.44771525-1-1s.4477153-1 1-1h1v-1c0-.55228475.4477153-1 1-1z" fill-rule="evenodd"/></svg>