<svg height="24" viewBox="0 0 24 24" width="24" xmlns="http://www.w3.org/2000/svg"><path d="m7 14h1c1.63573058 0 3.0880049.7854695 4.0002202 1.9998057.8637867-1.1504238 2.2126755-1.9159367 3.7430832-1.9933302l.2566966-.0064755h1c2.7614237 0 5 2.2385763 5 5 0 .5522847-.4477153 1-1 1-.5128358 0-.9355072-.3860402-.9932723-.8833789l-.0118204-.2928939c-.0878669-1.516481-1.3021535-2.7307676-2.8186345-2.8186345l-.1762728-.0050927h-1c-1.6568542 0-3 1.3431458-3 3 0 .5128358-.3860402.9355072-.8833789.9932723l-.1166211.0067277c-.5128358 0-.9355072-.3860402-.9932723-.8833789l-.0118204-.2928939c-.0878669-1.516481-1.30215346-2.7307676-2.81863451-2.8186345l-.17627279-.0050927h-1c-1.65685425 0-3 1.3431458-3 3 0 .5522847-.44771525 1-1 1s-1-.4477153-1-1c0-2.6887547 2.12230671-4.8818181 4.78311038-4.9953805zm0-10c2.209139 0 4 1.790861 4 4s-1.790861 4-4 4-4-1.790861-4-4 1.790861-4 4-4zm10 0c2.209139 0 4 1.790861 4 4s-1.790861 4-4 4-4-1.790861-4-4 1.790861-4 4-4zm-10 2c-1.1045695 0-2 .8954305-2 2s.8954305 2 2 2 2-.8954305 2-2-.8954305-2-2-2zm10 0c-1.1045695 0-2 .8954305-2 2s.8954305 2 2 2 2-.8954305 2-2-.8954305-2-2-2z" fill-rule="evenodd"/></svg>