<svg height="24" viewBox="0 0 24 24" width="24" xmlns="http://www.w3.org/2000/svg"><path d="m21 20c.5522847 0 1 .4477153 1 1s-.4477153 1-1 1h-18c-.55228475 0-1-.4477153-1-1s.44771525-1 1-1zm-9-2-.082-.004-.1187258-.0162401-.1114167-.029498-.111079-.0439353-.0974873-.0523221-.0744505-.050318-.1119475-.0965797-3.99999998-4c-.39052429-.3905243-.39052429-1.0236893 0-1.4142136.36048396-.3604839.92771502-.3882135 1.32000622-.0831886l.09420734.0831886 2.29289322 2.2921068v-11.585c0-.55228475.4477153-1 1-1s1 .44771525 1 1v11.585l2.2928932-2.2921068c.360484-.3604839.927715-.3882135 1.3200062-.0831886l.0942074.0831886c.3604839.360484.3882135.927715.0831886 1.3200062l-.0831886.0942074-4 4-.0439598.0413974-.0678404.0551612-.1112445.0716634-.060963.0310174-.0814487.0337679-.0756574.0240408-.1485188.0290109z" fill-rule="evenodd"/></svg>