<svg height="24" viewBox="0 0 24 24" width="24" xmlns="http://www.w3.org/2000/svg"><path d="m19 13c1.6568542 0 3 1.3431458 3 3v3c0 1.6568542-1.3431458 3-3 3h-3c-1.6568542 0-3-1.3431458-3-3v-3c0-1.6568542 1.3431458-3 3-3zm-11 0c1.65685425 0 3 1.3431458 3 3v3c0 1.6568542-1.34314575 3-3 3h-3c-1.65685425 0-3-1.3431458-3-3v-3c0-1.6568542 1.34314575-3 3-3zm11 2h-3c-.5522847 0-1 .4477153-1 1v3c0 .5522847.4477153 1 1 1h3c.5522847 0 1-.4477153 1-1v-3c0-.5522847-.4477153-1-1-1zm-11 0h-3c-.55228475 0-1 .4477153-1 1v3c0 .5522847.44771525 1 1 1h3c.55228475 0 1-.4477153 1-1v-3c0-.5522847-.44771525-1-1-1zm11-13c1.6568542 0 3 1.34314575 3 3v3c0 1.65685425-1.3431458 3-3 3h-14c-1.65685425 0-3-1.34314575-3-3v-3c0-1.65685425 1.34314575-3 3-3zm0 2h-14c-.55228475 0-1 .44771525-1 1v3c0 .55228475.44771525 1 1 1h14c.5522847 0 1-.44771525 1-1v-3c0-.55228475-.4477153-1-1-1z" fill-rule="evenodd"/></svg>