<svg height="24" viewBox="0 0 24 24" width="24" xmlns="http://www.w3.org/2000/svg"><path d="m12 4c3.5878499 0 6.755364 2.43241398 9.5112563 7.1435135l.2059202.3576026.2828235.4988839-.4887437.8564865c-2.7558923 4.7110995-5.9234064 7.1435135-9.5112563 7.1435135-3.58784988 0-6.75536399-2.432414-9.51125628-7.1435135l-.20592027-.3576026-.28282345-.4988839.28282345-.4988839c2.80369957-4.94556117 6.03963042-7.5011161 9.71717655-7.5011161zm0 2c-2.70308161 0-5.27171381 1.91553708-7.69468045 6 2.42296664 4.0844629 4.99159884 6 7.69468045 6 2.6296758 0 5.1288735-1.8099286 7.4870502-5.6552845l.2077082-.3445841-.2080413-.3447987c-2.3618384-3.8476524-4.8608382-5.6553327-7.4867171-5.6553327zm0 3c1.6568542 0 3 1.3431458 3 3s-1.3431458 3-3 3-3-1.3431458-3-3 1.3431458-3 3-3z" fill-rule="evenodd"/></svg>