<svg height="24" viewBox="0 0 24 24" width="24" xmlns="http://www.w3.org/2000/svg"><path d="m8 2c.55228475 0 1 .44771525 1 1v18c0 .5522847-.44771525 1-1 1s-1-.4477153-1-1v-18c0-.55228475.44771525-1 1-1zm12 2c.5522847 0 1 .44771525 1 1v14c0 .5522847-.4477153 1-1 1s-1-.4477153-1-1v-14c0-.55228475.4477153-1 1-1zm-8 2c.5522847 0 1 .44771525 1 1v10c0 .5522847-.4477153 1-1 1s-1-.4477153-1-1v-10c0-.55228475.4477153-1 1-1zm-8 3c.55228475 0 1 .44771525 1 1v4c0 .5522847-.44771525 1-1 1s-1-.4477153-1-1v-4c0-.55228475.44771525-1 1-1zm12 1c.5522847 0 1 .4477153 1 1v2c0 .5522847-.4477153 1-1 1s-1-.4477153-1-1v-2c0-.5522847.4477153-1 1-1z" fill-rule="evenodd"/></svg>