<svg height="24" viewBox="0 0 24 24" width="24" xmlns="http://www.w3.org/2000/svg"><path d="m12 5v14c0 .8909049-1.0771419 1.3370716-1.7071068.7071068l-3.70710676-3.7071068h-3.58578644c-.55228475 0-1-.4477153-1-1v-6c0-.55228475.44771525-1 1-1h3.58578644l3.70710676-3.70710678c.6299649-.62996486 1.7071068-.18379807 1.7071068.70710678zm4.1198386-.47467459c.2621556-.4860997.8687363-.66764232 1.354836-.40548678 2.7573677 1.48705959 4.5253254 4.519176 4.5253254 7.88016137 0 3.3609854-1.7679577 6.3931018-4.5253254 7.8801614-.4860997.2621555-1.0926804.0806129-1.354836-.4054868-.2621555-.4860997-.0806129-1.0926804.4054868-1.354836 2.1031619-1.1342437 3.4746746-3.4864415 3.4746746-6.1198386 0-2.63339714-1.3715127-4.98559489-3.4746746-6.11983863-.4860997-.26215554-.6676423-.86873626-.4054868-1.35483596zm-6.1198386 2.88888815-2.29289322 2.29289322c-.18753638.18753638-.44189029.29289322-.70710678.29289322h-3v4h3c.26521649 0 .5195704.1053568.70710678.2928932l2.29289322 2.2928932zm4.0922902 1.16618795c.2317378-.50131429.825994-.71984917 1.3273083-.48811132 1.559388.72084364 2.5804015 2.22176771 2.5804015 3.90770981s-1.0210135 3.1868662-2.5804015 3.9077098c-.5013143.2317379-1.0955705.013203-1.3273083-.4881113-.2317379-.5013143-.013203-1.0955705.4881113-1.3273083.8708769-.4025721 1.4195985-1.2092113 1.4195985-2.0922902s-.5487216-1.6897181-1.4195985-2.09229019c-.5013143-.23173785-.7198492-.82599402-.4881113-1.3273083z" fill-rule="evenodd"/></svg>