<svg height="24" viewBox="0 0 24 24" width="24" xmlns="http://www.w3.org/2000/svg"><path d="m13.1784199 2.2788327c.5100748.25503742.9236711.66863371 1.1787085 1.17870854l7.3640389 14.72807776c.6509827 1.3019655.123257 2.8851429-1.1787085 3.5361257-.3659775.1829887-.7695334.2782553-1.1787086.2782553h-14.72807778c-1.45564168 0-2.63567242-1.1800307-2.63567242-2.6356724 0-.4091752.09526662-.8127311.27825534-1.1787086l7.3640389-14.72807776c.65098276-1.3019655 2.23416016-1.82969129 3.53612566-1.17870854zm-1.9411822 2.19270941-7.14721684 14.29443359c-.05920031.1184007-.09002086.2489586-.09002086.3813345 0 .4709276.38176222.8526898.85268979.8526898h14.29443361c.1323759 0 .2629339-.0308206.3813345-.0900209.4212104-.2106052.5919397-.7227929.3813345-1.1440034l-7.1472169-14.29443359c-.0825094-.16501884-.2163156-.29882505-.3813344-.38133447-.4212104-.21060521-.9333982-.03987595-1.1440034.38133447zm.7627623 11.52845789c.5522847 0 1 .4477153 1 1s-.4477153 1-1 1-1-.4477153-1-1 .4477153-1 1-1zm0-8c.5522847 0 1 .44771525 1 1v4c0 .5522847-.4477153 1-1 1s-1-.4477153-1-1v-4c0-.55228475.4477153-1 1-1z" fill-rule="evenodd"/></svg>