<svg height="24" viewBox="0 0 24 24" width="24" xmlns="http://www.w3.org/2000/svg"><path d="m13.4 16.6c.8.8.8 2 0 2.8-.4.4-.9.6-1.4.6s-1-.2-1.4-.6c-.8-.8-.8-2 0-2.8s2-.8 2.8 0zm-1.4-4.6c1.6 0 3.1.6 4.2 1.8.4.4.4 1 0 1.4-.2.2-.5.3-.7.3-.2571429 0-.4408163-.0734694-.6139942-.2204082l-.0860058-.0795918c-1.5-1.5-4-1.5-5.5 0-.4.4-1 .4-1.4 0-.36923077-.3692308-.39763314-.9088757-.0852071-1.3043241l.0852071-.0956759c1-1.2 2.5-1.8 4.1-1.8zm0-4c2.6 0 5.1 1 6.9 2.9.4.4.4 1 0 1.4-.2.2-.4.3-.7.3-.2571429 0-.4408163-.0734694-.6139942-.2204082l-.0860058-.0795918c-1.5-1.5-3.4-2.3-5.5-2.3s-4 .8-5.5 2.3c-.4.4-1 .4-1.4 0s-.4-1 0-1.4c1.8-1.9 4.3-2.9 6.9-2.9zm0-4c3.7 0 7.1 1.5 9.7 4.1.4.4.4 1 0 1.4-.2.2-.4.3-.7.3s-.5-.1-.7-.3c-2.2-2.3-5.2-3.5-8.3-3.5s-6.1 1.2-8.3 3.5c-.4.4-1 .4-1.4 0s-.4-1 0-1.4c2.6-2.6 6-4.1 9.7-4.1z" fill-rule="evenodd"/></svg>