<svg height="24" viewBox="0 0 24 24" width="24" xmlns="http://www.w3.org/2000/svg"><path d="m18.6 2.2c.407841.30588078.5155105.86348933.2690296 1.29497485l-.0690296.10502515-5.8000589 7.7329411v.667l3.0000589.0000589c.5522847 0 1 .4477153 1 1s-.4477153 1-1 1l-3.0000589-.0000589v2l3.0000589.0000589c.5522847 0 1 .4477153 1 1s-.4477153 1-1 1l-3.0000589-.0000589.0000589 3.0000589c0 .5522847-.4477153 1-1 1s-1-.4477153-1-1l-.0000589-3.0000589-2.9999411.0000589c-.55228475 0-1-.4477153-1-1s.44771525-1 1-1l2.9999411-.0000589v-2l-2.9999411.0000589c-.55228475 0-1-.4477153-1-1s.44771525-1 1-1l2.9999411-.0000589v-.667l-5.7999411-7.7329411c-.33137085-.4418278-.2418278-1.06862915.2-1.4.40784105-.30588078.97329269-.25311304 1.31850414.10432455l.08149586.09567545 5.199 6.932 5.201-6.932c.3313708-.4418278.9581722-.53137085 1.4-.2z" fill-rule="evenodd"/></svg>