<svg height="24" viewBox="0 0 24 24" width="24" xmlns="http://www.w3.org/2000/svg"><path d="m11 2c4.9705627 0 9 4.02943725 9 9 0 2.124779-.7363102 4.0775836-1.9676926 5.6171757l3.6747994 3.6757175c.3905243.3905243.3905243 1.0236893 0 1.4142136-.360484.3604839-.927715.3882135-1.3200062.0831886l-.0942074-.0831886-3.6757175-3.6747994c-1.5395921 1.2313824-3.4923967 1.9676926-5.6171757 1.9676926-4.97056275 0-9-4.0294373-9-9 0-4.97056275 4.02943725-9 9-9zm0 2c-3.86599325 0-7 3.13400675-7 7 0 3.8659932 3.13400675 7 7 7 3.8659932 0 7-3.1340068 7-7 0-3.86599325-3.1340068-7-7-7zm0 3c.5522847 0 1 .44771525 1 1v2h2c.5522847 0 1 .4477153 1 1s-.4477153 1-1 1h-2v2c0 .5522847-.4477153 1-1 1s-1-.4477153-1-1v-2h-2c-.55228475 0-1-.4477153-1-1s.44771525-1 1-1h2v-2c0-.55228475.4477153-1 1-1z" fill-rule="evenodd"/></svg>